<?xml version="1.0" encoding="UTF-8" standalone="no"?>
<!DOCTYPE svg PUBLIC "-//W3C//DTD SVG 1.1//EN"
 "http://www.w3.org/Graphics/SVG/1.1/DTD/svg11.dtd">
<!-- Generated by graphviz version 2.43.0 (0)
 -->
<!-- Title: dependency&#45;cruiser output Pages: 1 -->
<svg width="571pt" height="934pt"
 viewBox="0.00 0.00 571.00 934.00" xmlns="http://www.w3.org/2000/svg" xmlns:xlink="http://www.w3.org/1999/xlink">
<g id="graph0" class="graph" transform="scale(1 1) rotate(0) translate(4 930)">
<title>dependency&#45;cruiser output</title>
<polygon fill="white" stroke="transparent" points="-4,4 -4,-930 567,-930 567,4 -4,4"/>
<g id="clust1" class="cluster">
<title>cluster_src</title>
<path fill="#ffffff" stroke="black" stroke-width="2" d="M20,-8C20,-8 543,-8 543,-8 549,-8 555,-14 555,-20 555,-20 555,-906 555,-906 555,-912 549,-918 543,-918 543,-918 20,-918 20,-918 14,-918 8,-912 8,-906 8,-906 8,-20 8,-20 8,-14 14,-8 20,-8"/>
<text text-anchor="middle" x="281.5" y="-906.8" font-family="Helvetica,sans-Serif" font-weight="bold" font-size="9.00">src</text>
</g>
<g id="clust2" class="cluster">
<title>cluster_src/core</title>
<path fill="#ffffff" stroke="black" stroke-width="2" d="M28,-342C28,-342 535,-342 535,-342 541,-342 547,-348 547,-354 547,-354 547,-880 547,-880 547,-886 541,-892 535,-892 535,-892 28,-892 28,-892 22,-892 16,-886 16,-880 16,-880 16,-354 16,-354 16,-348 22,-342 28,-342"/>
<text text-anchor="middle" x="281.5" y="-880.8" font-family="Helvetica,sans-Serif" font-weight="bold" font-size="9.00">core</text>
</g>
<g id="clust3" class="cluster">
<title>cluster_src/core/database</title>
<path fill="#ffffff" stroke="black" stroke-width="2" d="M352.5,-574C352.5,-574 527,-574 527,-574 533,-574 539,-580 539,-586 539,-586 539,-614 539,-614 539,-620 533,-626 527,-626 527,-626 352.5,-626 352.5,-626 346.5,-626 340.5,-620 340.5,-614 340.5,-614 340.5,-586 340.5,-586 340.5,-580 346.5,-574 352.5,-574"/>
<text text-anchor="middle" x="439.75" y="-614.8" font-family="Helvetica,sans-Serif" font-weight="bold" font-size="9.00">database</text>
</g>
<g id="clust4" class="cluster">
<title>cluster_src/core/docker</title>
<path fill="#ffffff" stroke="black" stroke-width="2" d="M36,-724C36,-724 148,-724 148,-724 154,-724 160,-730 160,-736 160,-736 160,-854 160,-854 160,-860 154,-866 148,-866 148,-866 36,-866 36,-866 30,-866 24,-860 24,-854 24,-854 24,-736 24,-736 24,-730 30,-724 36,-724"/>
<text text-anchor="middle" x="92" y="-854.8" font-family="Helvetica,sans-Serif" font-weight="bold" font-size="9.00">docker</text>
</g>
<g id="clust5" class="cluster">
<title>cluster_src/core/plugins</title>
<path fill="#ffffff" stroke="black" stroke-width="2" d="M50,-634C50,-634 276,-634 276,-634 282,-634 288,-640 288,-646 288,-646 288,-704 288,-704 288,-710 282,-716 276,-716 276,-716 50,-716 50,-716 44,-716 38,-710 38,-704 38,-704 38,-646 38,-646 38,-640 44,-634 50,-634"/>
<text text-anchor="middle" x="163" y="-704.8" font-family="Helvetica,sans-Serif" font-weight="bold" font-size="9.00">plugins</text>
</g>
<g id="clust6" class="cluster">
<title>cluster_src/core/stacks</title>
<path fill="#ffffff" stroke="black" stroke-width="2" d="M199.5,-574C199.5,-574 261.5,-574 261.5,-574 267.5,-574 273.5,-580 273.5,-586 273.5,-586 273.5,-614 273.5,-614 273.5,-620 267.5,-626 261.5,-626 261.5,-626 199.5,-626 199.5,-626 193.5,-626 187.5,-620 187.5,-614 187.5,-614 187.5,-586 187.5,-586 187.5,-580 193.5,-574 199.5,-574"/>
<text text-anchor="middle" x="230.5" y="-614.8" font-family="Helvetica,sans-Serif" font-weight="bold" font-size="9.00">stacks</text>
</g>
<g id="clust7" class="cluster">
<title>cluster_src/core/trpc</title>
<path fill="#ffffff" stroke="black" stroke-width="2" d="M69,-350C69,-350 526,-350 526,-350 532,-350 538,-356 538,-362 538,-362 538,-554 538,-554 538,-560 532,-566 526,-566 526,-566 69,-566 69,-566 63,-566 57,-560 57,-554 57,-554 57,-362 57,-362 57,-356 63,-350 69,-350"/>
<text text-anchor="middle" x="297.5" y="-554.8" font-family="Helvetica,sans-Serif" font-weight="bold" font-size="9.00">trpc</text>
</g>
<g id="clust8" class="cluster">
<title>cluster_src/core/trpc/procedures</title>
<path fill="#ffffff" stroke="black" stroke-width="2" d="M313,-358C313,-358 455,-358 455,-358 461,-358 467,-364 467,-370 467,-370 467,-518 467,-518 467,-524 461,-530 455,-530 455,-530 313,-530 313,-530 307,-530 301,-524 301,-518 301,-518 301,-370 301,-370 301,-364 307,-358 313,-358"/>
<text text-anchor="middle" x="384" y="-518.8" font-family="Helvetica,sans-Serif" font-weight="bold" font-size="9.00">procedures</text>
</g>
<g id="clust9" class="cluster">
<title>cluster_src/core/utils</title>
<path fill="#ffffff" stroke="black" stroke-width="2" d="M329.5,-634C329.5,-634 438.5,-634 438.5,-634 444.5,-634 450.5,-640 450.5,-646 450.5,-646 450.5,-794 450.5,-794 450.5,-800 444.5,-806 438.5,-806 438.5,-806 329.5,-806 329.5,-806 323.5,-806 317.5,-800 317.5,-794 317.5,-794 317.5,-646 317.5,-646 317.5,-640 323.5,-634 329.5,-634"/>
<text text-anchor="middle" x="384" y="-794.8" font-family="Helvetica,sans-Serif" font-weight="bold" font-size="9.00">utils</text>
</g>
<g id="clust10" class="cluster">
<title>cluster_src/plugins</title>
<path fill="#ffffff" stroke="black" stroke-width="2" d="M46,-252C46,-252 138,-252 138,-252 144,-252 150,-258 150,-264 150,-264 150,-322 150,-322 150,-328 144,-334 138,-334 138,-334 46,-334 46,-334 40,-334 34,-328 34,-322 34,-322 34,-264 34,-264 34,-258 40,-252 46,-252"/>
<text text-anchor="middle" x="92" y="-322.8" font-family="Helvetica,sans-Serif" font-weight="bold" font-size="9.00">plugins</text>
</g>
<g id="clust11" class="cluster">
<title>cluster_src/routes</title>
<path fill="#ffffff" stroke="black" stroke-width="2" d="M180,-16C180,-16 281,-16 281,-16 287,-16 293,-22 293,-28 293,-28 293,-206 293,-206 293,-212 287,-218 281,-218 281,-218 180,-218 180,-218 174,-218 168,-212 168,-206 168,-206 168,-28 168,-28 168,-22 174,-16 180,-16"/>
<text text-anchor="middle" x="230.5" y="-206.8" font-family="Helvetica,sans-Serif" font-weight="bold" font-size="9.00">routes</text>
</g>
<g id="clust12" class="cluster">
<title>cluster_src/typings</title>
<path fill="#ffffff" stroke="black" stroke-width="2" d="M45.5,-42C45.5,-42 138.5,-42 138.5,-42 144.5,-42 150.5,-48 150.5,-54 150.5,-54 150.5,-232 150.5,-232 150.5,-238 144.5,-244 138.5,-244 138.5,-244 45.5,-244 45.5,-244 39.5,-244 33.5,-238 33.5,-232 33.5,-232 33.5,-54 33.5,-54 33.5,-48 39.5,-42 45.5,-42"/>
<text text-anchor="middle" x="92" y="-232.8" font-family="Helvetica,sans-Serif" font-weight="bold" font-size="9.00">typings</text>
</g>
<!-- src/core/database/helper.ts -->
<g id="node1" class="node">
<title>src/core/database/helper.ts</title>
<g id="a_node1"><a xlink:href="src/core/database/helper.ts" xlink:title="helper.ts">
<path fill="#ddfeff" stroke="black" d="M525,-600C525,-600 481,-600 481,-600 478,-600 475,-597 475,-594 475,-594 475,-588 475,-588 475,-585 478,-582 481,-582 481,-582 525,-582 525,-582 528,-582 531,-585 531,-588 531,-588 531,-594 531,-594 531,-597 528,-600 525,-600"/>
<text text-anchor="start" x="483" y="-588.8" font-family="Helvetica,sans-Serif" font-size="9.00">helper.ts</text>
</a>
</g>
</g>
<!-- src/core/utils/logger.ts -->
<g id="node2" class="node">
<title>src/core/utils/logger.ts</title>
<g id="a_node2"><a xlink:href="src/core/utils/logger.ts" xlink:title="logger.ts">
<path fill="#ddfeff" stroke="black" d="M406,-750C406,-750 362,-750 362,-750 359,-750 356,-747 356,-744 356,-744 356,-738 356,-738 356,-735 359,-732 362,-732 362,-732 406,-732 406,-732 409,-732 412,-735 412,-738 412,-738 412,-744 412,-744 412,-747 409,-750 406,-750"/>
<text text-anchor="start" x="364" y="-738.8" font-family="Helvetica,sans-Serif" font-size="9.00">logger.ts</text>
</a>
</g>
</g>
<!-- src/core/database/helper.ts&#45;&gt;src/core/utils/logger.ts -->
<g id="edge1" class="edge">
<title>src/core/database/helper.ts&#45;&gt;src/core/utils/logger.ts</title>
<path fill="none" stroke="#000000" stroke-width="2" stroke-opacity="0.200000" d="M500.92,-600.04C497.46,-627.41 485.8,-708.52 467,-726 456.11,-736.13 440.75,-740.54 426.27,-742.2"/>
<polygon fill="#000000" fill-opacity="0.200000" stroke="#000000" stroke-width="2" stroke-opacity="0.200000" points="418.13,-740.58 412.27,-743.04 418.39,-744.78 418.13,-740.58"/>
<polyline fill="none" stroke="#000000" stroke-width="2" stroke-opacity="0.200000" points="418.26,-742.68 421.25,-742.5 "/>
<ellipse fill="none" stroke="#000000" stroke-width="2" stroke-opacity="0.200000" cx="423.65" cy="-742.35" rx="2.4" ry="2.4"/>
</g>
<!-- src/core/database/repository.ts -->
<g id="node3" class="node">
<title>src/core/database/repository.ts</title>
<g id="a_node3"><a xlink:href="src/core/database/repository.ts" xlink:title="repository.ts">
<path fill="#ddfeff" stroke="black" d="M413.5,-600C413.5,-600 354.5,-600 354.5,-600 351.5,-600 348.5,-597 348.5,-594 348.5,-594 348.5,-588 348.5,-588 348.5,-585 351.5,-582 354.5,-582 354.5,-582 413.5,-582 413.5,-582 416.5,-582 419.5,-585 419.5,-588 419.5,-588 419.5,-594 419.5,-594 419.5,-597 416.5,-600 413.5,-600"/>
<text text-anchor="start" x="356.5" y="-588.8" font-family="Helvetica,sans-Serif" font-size="9.00">repository.ts</text>
</a>
</g>
</g>
<!-- src/core/utils/logger.ts&#45;&gt;src/core/database/repository.ts -->
<g id="edge22" class="edge">
<title>src/core/utils/logger.ts&#45;&gt;src/core/database/repository.ts</title>
<path fill="none" stroke="#000000" stroke-width="2" stroke-opacity="0.200000" d="M355.98,-744.61C333.23,-745.77 303.84,-742.6 297,-720 294.33,-711.17 294.33,-645.83 297,-637 297.93,-633.93 298.58,-633.1 301,-631 313.38,-620.23 329.17,-611.67 343.64,-605.27"/>
<polygon fill="#000000" fill-opacity="0.200000" stroke="#000000" stroke-width="2" stroke-opacity="0.200000" points="351.68,-604.24 356.43,-600.01 350.09,-600.35 351.68,-604.24"/>
<polyline fill="none" stroke="#000000" stroke-width="2" stroke-opacity="0.200000" points="350.89,-602.29 348.11,-603.44 "/>
<ellipse fill="none" stroke="#000000" stroke-width="2" stroke-opacity="0.200000" cx="345.89" cy="-604.35" rx="2.4" ry="2.4"/>
</g>
<!-- src/core/database/repository.ts&#45;&gt;src/core/database/helper.ts -->
<g id="edge2" class="edge">
<title>src/core/database/repository.ts&#45;&gt;src/core/database/helper.ts</title>
<path fill="none" stroke="#000000" stroke-width="2" stroke-opacity="0.200000" d="M419.79,-591C432.75,-591 447.58,-591 461.04,-591"/>
<polygon fill="#000000" fill-opacity="0.200000" stroke="#000000" stroke-width="2" stroke-opacity="0.200000" points="468.96,-593.1 474.96,-591 468.96,-588.9 468.96,-593.1"/>
<polyline fill="none" stroke="#000000" stroke-width="2" stroke-opacity="0.200000" points="468.96,-591 465.96,-591 "/>
<ellipse fill="none" stroke="#000000" stroke-width="2" stroke-opacity="0.200000" cx="463.56" cy="-591" rx="2.4" ry="2.4"/>
</g>
<!-- src/core/docker/client.ts -->
<g id="node4" class="node">
<title>src/core/docker/client.ts</title>
<g id="a_node4"><a xlink:href="src/core/docker/client.ts" xlink:title="client.ts">
<path fill="#ccffcc" stroke="black" d="M113,-840C113,-840 71,-840 71,-840 68,-840 65,-837 65,-834 65,-834 65,-828 65,-828 65,-825 68,-822 71,-822 71,-822 113,-822 113,-822 116,-822 119,-825 119,-828 119,-828 119,-834 119,-834 119,-837 116,-840 113,-840"/>
<text text-anchor="start" x="73.5" y="-828.8" font-family="Helvetica,sans-Serif" font-size="9.00">client.ts</text>
</a>
</g>
</g>
<!-- src/core/docker/scheduler.ts -->
<g id="node5" class="node">
<title>src/core/docker/scheduler.ts</title>
<g id="a_node5"><a xlink:href="src/core/docker/scheduler.ts" xlink:title="scheduler.ts">
<path fill="#ccffcc" stroke="black" d="M121.5,-810C121.5,-810 62.5,-810 62.5,-810 59.5,-810 56.5,-807 56.5,-804 56.5,-804 56.5,-798 56.5,-798 56.5,-795 59.5,-792 62.5,-792 62.5,-792 121.5,-792 121.5,-792 124.5,-792 127.5,-795 127.5,-798 127.5,-798 127.5,-804 127.5,-804 127.5,-807 124.5,-810 121.5,-810"/>
<text text-anchor="start" x="64.5" y="-798.8" font-family="Helvetica,sans-Serif" font-size="9.00">scheduler.ts</text>
</a>
</g>
</g>
<!-- src/core/docker/store&#45;container&#45;stats.ts -->
<g id="node6" class="node">
<title>src/core/docker/store&#45;container&#45;stats.ts</title>
<g id="a_node6"><a xlink:href="src/core/docker/store-container-stats.ts" xlink:title="store&#45;container&#45;stats.ts">
<path fill="#ccffcc" stroke="black" d="M146,-780C146,-780 38,-780 38,-780 35,-780 32,-777 32,-774 32,-774 32,-768 32,-768 32,-765 35,-762 38,-762 38,-762 146,-762 146,-762 149,-762 152,-765 152,-768 152,-768 152,-774 152,-774 152,-777 149,-780 146,-780"/>
<text text-anchor="start" x="40" y="-768.8" font-family="Helvetica,sans-Serif" font-size="9.00">store&#45;container&#45;stats.ts</text>
</a>
</g>
</g>
<!-- src/core/docker/store&#45;host&#45;stats.ts -->
<g id="node7" class="node">
<title>src/core/docker/store&#45;host&#45;stats.ts</title>
<g id="a_node7"><a xlink:href="src/core/docker/store-host-stats.ts" xlink:title="store&#45;host&#45;stats.ts">
<path fill="#ccffcc" stroke="black" d="M135,-750C135,-750 49,-750 49,-750 46,-750 43,-747 43,-744 43,-744 43,-738 43,-738 43,-735 46,-732 49,-732 49,-732 135,-732 135,-732 138,-732 141,-735 141,-738 141,-738 141,-744 141,-744 141,-747 138,-750 135,-750"/>
<text text-anchor="start" x="51" y="-738.8" font-family="Helvetica,sans-Serif" font-size="9.00">store&#45;host&#45;stats.ts</text>
</a>
</g>
</g>
<!-- src/core/plugins/loader.ts -->
<g id="node8" class="node">
<title>src/core/plugins/loader.ts</title>
<g id="a_node8"><a xlink:href="src/core/plugins/loader.ts" xlink:title="loader.ts">
<path fill="#ddfeff" stroke="black" d="M113.5,-690C113.5,-690 70.5,-690 70.5,-690 67.5,-690 64.5,-687 64.5,-684 64.5,-684 64.5,-678 64.5,-678 64.5,-675 67.5,-672 70.5,-672 70.5,-672 113.5,-672 113.5,-672 116.5,-672 119.5,-675 119.5,-678 119.5,-678 119.5,-684 119.5,-684 119.5,-687 116.5,-690 113.5,-690"/>
<text text-anchor="start" x="72.5" y="-678.8" font-family="Helvetica,sans-Serif" font-size="9.00">loader.ts</text>
</a>
</g>
</g>
<!-- src/core/plugins/loader.ts&#45;&gt;src/core/utils/logger.ts -->
<g id="edge4" class="edge">
<title>src/core/plugins/loader.ts&#45;&gt;src/core/utils/logger.ts</title>
<path fill="none" stroke="#000000" stroke-width="2" stroke-opacity="0.200000" d="M119.54,-687.03C159.02,-695.93 235.6,-712.95 301,-726 317.02,-729.2 334.85,-732.49 349.79,-735.17"/>
<polygon fill="#000000" fill-opacity="0.200000" stroke="#000000" stroke-width="2" stroke-opacity="0.200000" points="349.72,-737.3 356,-736.29 350.46,-733.16 349.72,-737.3"/>
</g>
<!-- src/core/utils/change&#45;me&#45;checker.ts -->
<g id="node9" class="node">
<title>src/core/utils/change&#45;me&#45;checker.ts</title>
<g id="a_node9"><a xlink:href="src/core/utils/change-me-checker.ts" xlink:title="change&#45;me&#45;checker.ts">
<path fill="#ddfeff" stroke="black" d="M436.5,-780C436.5,-780 331.5,-780 331.5,-780 328.5,-780 325.5,-777 325.5,-774 325.5,-774 325.5,-768 325.5,-768 325.5,-765 328.5,-762 331.5,-762 331.5,-762 436.5,-762 436.5,-762 439.5,-762 442.5,-765 442.5,-768 442.5,-768 442.5,-774 442.5,-774 442.5,-777 439.5,-780 436.5,-780"/>
<text text-anchor="start" x="333.5" y="-768.8" font-family="Helvetica,sans-Serif" font-size="9.00">change&#45;me&#45;checker.ts</text>
</a>
</g>
</g>
<!-- src/core/plugins/loader.ts&#45;&gt;src/core/utils/change&#45;me&#45;checker.ts -->
<g id="edge3" class="edge">
<title>src/core/plugins/loader.ts&#45;&gt;src/core/utils/change&#45;me&#45;checker.ts</title>
<path fill="none" stroke="#000000" stroke-width="2" stroke-opacity="0.200000" d="M111.22,-690.04C126.24,-697.31 148.22,-707.5 168,-715 225.84,-736.92 240.92,-741.3 301,-756 307.92,-757.69 315.21,-759.29 322.47,-760.76"/>
<polygon fill="#000000" fill-opacity="0.200000" stroke="#000000" stroke-width="2" stroke-opacity="0.200000" points="322.26,-762.86 328.56,-761.97 323.08,-758.74 322.26,-762.86"/>
</g>
<!-- src/core/plugins/plugin&#45;manager.ts -->
<g id="node10" class="node">
<title>src/core/plugins/plugin&#45;manager.ts</title>
<g id="a_node10"><a xlink:href="src/core/plugins/plugin-manager.ts" xlink:title="plugin&#45;manager.ts">
<path fill="#ddfeff" stroke="black" d="M274,-690C274,-690 187,-690 187,-690 184,-690 181,-687 181,-684 181,-684 181,-678 181,-678 181,-675 184,-672 187,-672 187,-672 274,-672 274,-672 277,-672 280,-675 280,-678 280,-678 280,-684 280,-684 280,-687 277,-690 274,-690"/>
<text text-anchor="start" x="189" y="-678.8" font-family="Helvetica,sans-Serif" font-size="9.00">plugin&#45;manager.ts</text>
</a>
</g>
</g>
<!-- src/core/plugins/loader.ts&#45;&gt;src/core/plugins/plugin&#45;manager.ts -->
<g id="edge5" class="edge">
<title>src/core/plugins/loader.ts&#45;&gt;src/core/plugins/plugin&#45;manager.ts</title>
<path fill="none" stroke="#000000" stroke-width="2" stroke-opacity="0.200000" d="M119.64,-681C135.26,-681 155.57,-681 174.47,-681"/>
<polygon fill="#000000" fill-opacity="0.200000" stroke="#000000" stroke-width="2" stroke-opacity="0.200000" points="174.82,-683.1 180.82,-681 174.82,-678.9 174.82,-683.1"/>
</g>
<!-- src/core/plugins/plugin&#45;manager.ts&#45;&gt;src/core/utils/logger.ts -->
<g id="edge7" class="edge">
<title>src/core/plugins/plugin&#45;manager.ts&#45;&gt;src/core/utils/logger.ts</title>
<path fill="none" stroke="#000000" stroke-width="2" stroke-opacity="0.200000" d="M249.2,-690.14C261.91,-697.05 279.16,-707.18 293,-718 296.96,-721.1 296.55,-723.66 301,-726 315.93,-733.84 334.26,-737.65 349.8,-739.47"/>
<polygon fill="#000000" fill-opacity="0.200000" stroke="#000000" stroke-width="2" stroke-opacity="0.200000" points="349.64,-741.57 355.83,-740.1 350.08,-737.39 349.64,-741.57"/>
</g>
<!-- src/core/plugins/plugin&#45;actions.ts -->
<g id="node11" class="node">
<title>src/core/plugins/plugin&#45;actions.ts</title>
<g id="a_node11"><a xlink:href="src/core/plugins/plugin-actions.ts" xlink:title="plugin&#45;actions.ts">
<path fill="#ddfeff" stroke="black" d="M132,-660C132,-660 52,-660 52,-660 49,-660 46,-657 46,-654 46,-654 46,-648 46,-648 46,-645 49,-642 52,-642 52,-642 132,-642 132,-642 135,-642 138,-645 138,-648 138,-648 138,-654 138,-654 138,-657 135,-660 132,-660"/>
<text text-anchor="start" x="54" y="-648.8" font-family="Helvetica,sans-Serif" font-size="9.00">plugin&#45;actions.ts</text>
</a>
</g>
</g>
<!-- src/core/plugins/plugin&#45;actions.ts&#45;&gt;src/core/plugins/plugin&#45;manager.ts -->
<g id="edge6" class="edge">
<title>src/core/plugins/plugin&#45;actions.ts&#45;&gt;src/core/plugins/plugin&#45;manager.ts</title>
<path fill="none" stroke="#000000" stroke-width="2" stroke-opacity="0.200000" d="M133.95,-660C149.07,-663.32 166.32,-667.11 181.97,-670.55"/>
<polygon fill="#000000" fill-opacity="0.200000" stroke="#000000" stroke-width="2" stroke-opacity="0.200000" points="181.79,-672.66 188.1,-671.9 182.69,-668.56 181.79,-672.66"/>
</g>
<!-- src/core/stacks/controller.ts -->
<g id="node12" class="node">
<title>src/core/stacks/controller.ts</title>
<g id="a_node12"><a xlink:href="src/core/stacks/controller.ts" xlink:title="controller.ts">
<path fill="#ddfeff" stroke="black" d="M259.5,-600C259.5,-600 201.5,-600 201.5,-600 198.5,-600 195.5,-597 195.5,-594 195.5,-594 195.5,-588 195.5,-588 195.5,-585 198.5,-582 201.5,-582 201.5,-582 259.5,-582 259.5,-582 262.5,-582 265.5,-585 265.5,-588 265.5,-588 265.5,-594 265.5,-594 265.5,-597 262.5,-600 259.5,-600"/>
<text text-anchor="start" x="203.5" y="-588.8" font-family="Helvetica,sans-Serif" font-size="9.00">controller.ts</text>
</a>
</g>
</g>
<!-- src/core/stacks/controller.ts&#45;&gt;src/core/utils/logger.ts -->
<g id="edge9" class="edge">
<title>src/core/stacks/controller.ts&#45;&gt;src/core/utils/logger.ts</title>
<path fill="none" stroke="#000000" stroke-width="2" stroke-opacity="0.200000" d="M255.04,-600.06C268.53,-606.54 284.43,-616.68 293,-631 303.88,-649.18 286.76,-710.31 301,-726 313.04,-739.27 332.61,-743.21 349.61,-743.75"/>
<polygon fill="#000000" fill-opacity="0.200000" stroke="#000000" stroke-width="2" stroke-opacity="0.200000" points="349.73,-745.85 355.74,-743.8 349.76,-741.65 349.73,-745.85"/>
</g>
<!-- src/core/stacks/controller.ts&#45;&gt;src/core/database/repository.ts -->
<g id="edge8" class="edge">
<title>src/core/stacks/controller.ts&#45;&gt;src/core/database/repository.ts</title>
<path fill="none" stroke="#000000" stroke-width="2" stroke-opacity="0.200000" d="M265.88,-591C288.56,-591 318.38,-591 342.25,-591"/>
<polygon fill="#000000" fill-opacity="0.200000" stroke="#000000" stroke-width="2" stroke-opacity="0.200000" points="342.5,-593.1 348.5,-591 342.5,-588.9 342.5,-593.1"/>
</g>
<!-- src/core/trpc/index.ts -->
<g id="node13" class="node">
<title>src/core/trpc/index.ts</title>
<g id="a_node13"><a xlink:href="src/core/trpc/index.ts" xlink:title="index.ts">
<path fill="#ddfeff" stroke="black" d="M113,-459C113,-459 71,-459 71,-459 68,-459 65,-456 65,-453 65,-453 65,-447 65,-447 65,-444 68,-441 71,-441 71,-441 113,-441 113,-441 116,-441 119,-444 119,-447 119,-447 119,-453 119,-453 119,-456 116,-459 113,-459"/>
<text text-anchor="start" x="73.5" y="-447.8" font-family="Helvetica,sans-Serif" font-size="9.00">index.ts</text>
</a>
</g>
</g>
<!-- src/core/trpc/router.ts -->
<g id="node14" class="node">
<title>src/core/trpc/router.ts</title>
<g id="a_node14"><a xlink:href="src/core/trpc/router.ts" xlink:title="router.ts">
<path fill="#ddfeff" stroke="black" d="M252,-459C252,-459 209,-459 209,-459 206,-459 203,-456 203,-453 203,-453 203,-447 203,-447 203,-444 206,-441 209,-441 209,-441 252,-441 252,-441 255,-441 258,-444 258,-447 258,-447 258,-453 258,-453 258,-456 255,-459 252,-459"/>
<text text-anchor="start" x="211" y="-447.8" font-family="Helvetica,sans-Serif" font-size="9.00">router.ts</text>
</a>
</g>
</g>
<!-- src/core/trpc/index.ts&#45;&gt;src/core/trpc/router.ts -->
<g id="edge10" class="edge">
<title>src/core/trpc/index.ts&#45;&gt;src/core/trpc/router.ts</title>
<path fill="none" stroke="#000000" stroke-width="2" stroke-opacity="0.200000" d="M119.32,-450C141.36,-450 172.94,-450 196.64,-450"/>
<polygon fill="#000000" fill-opacity="0.200000" stroke="#000000" stroke-width="2" stroke-opacity="0.200000" points="196.8,-452.1 202.8,-450 196.8,-447.9 196.8,-452.1"/>
</g>
<!-- src/core/trpc/procedures/api&#45;config.procedure.ts -->
<g id="node15" class="node">
<title>src/core/trpc/procedures/api&#45;config.procedure.ts</title>
<g id="a_node15"><a xlink:href="src/core/trpc/procedures/api-config.procedure.ts" xlink:title="api&#45;config.procedure.ts">
<path fill="#ddfeff" stroke="black" d="M439,-444C439,-444 329,-444 329,-444 326,-444 323,-441 323,-438 323,-438 323,-432 323,-432 323,-429 326,-426 329,-426 329,-426 439,-426 439,-426 442,-426 445,-429 445,-432 445,-432 445,-438 445,-438 445,-441 442,-444 439,-444"/>
<text text-anchor="start" x="331" y="-432.8" font-family="Helvetica,sans-Serif" font-size="9.00">api&#45;config.procedure.ts</text>
</a>
</g>
</g>
<!-- src/core/trpc/router.ts&#45;&gt;src/core/trpc/procedures/api&#45;config.procedure.ts -->
<g id="edge16" class="edge">
<title>src/core/trpc/router.ts&#45;&gt;src/core/trpc/procedures/api&#45;config.procedure.ts</title>
<path fill="none" stroke="#000000" stroke-width="2" stroke-opacity="0.200000" d="M258.24,-447.35C274.55,-445.74 296.18,-443.6 316.84,-441.55"/>
<polygon fill="#000000" fill-opacity="0.200000" stroke="#000000" stroke-width="2" stroke-opacity="0.200000" points="317.16,-443.63 322.92,-440.95 316.75,-439.45 317.16,-443.63"/>
</g>
<!-- src/core/trpc/trpc.ts -->
<g id="node16" class="node">
<title>src/core/trpc/trpc.ts</title>
<g id="a_node16"><a xlink:href="src/core/trpc/trpc.ts" xlink:title="trpc.ts">
<path fill="#ddfeff" stroke="black" d="M524,-459C524,-459 482,-459 482,-459 479,-459 476,-456 476,-453 476,-453 476,-447 476,-447 476,-444 479,-441 482,-441 482,-441 524,-441 524,-441 527,-441 530,-444 530,-447 530,-447 530,-453 530,-453 530,-456 527,-459 524,-459"/>
<text text-anchor="start" x="487.5" y="-447.8" font-family="Helvetica,sans-Serif" font-size="9.00">trpc.ts</text>
</a>
</g>
</g>
<!-- src/core/trpc/router.ts&#45;&gt;src/core/trpc/trpc.ts -->
<g id="edge21" class="edge">
<title>src/core/trpc/router.ts&#45;&gt;src/core/trpc/trpc.ts</title>
<path fill="none" stroke="#000000" stroke-width="2" stroke-opacity="0.200000" d="M235.8,-459.25C244.85,-477.45 267.79,-517.49 301,-533 367.85,-564.21 405.53,-573.79 467,-533 489.83,-517.85 497.8,-484.56 500.56,-465.06"/>
<polygon fill="#000000" fill-opacity="0.200000" stroke="#000000" stroke-width="2" stroke-opacity="0.200000" points="502.66,-465.23 501.31,-459.02 498.49,-464.72 502.66,-465.23"/>
</g>
<!-- src/core/trpc/procedures/docker&#45;manager.procedure.ts -->
<g id="node17" class="node">
<title>src/core/trpc/procedures/docker&#45;manager.procedure.ts</title>
<g id="a_node17"><a xlink:href="src/core/trpc/procedures/docker-manager.procedure.ts" xlink:title="docker&#45;manager.procedure.ts">
<path fill="#ddfeff" stroke="black" d="M453,-414C453,-414 315,-414 315,-414 312,-414 309,-411 309,-408 309,-408 309,-402 309,-402 309,-399 312,-396 315,-396 315,-396 453,-396 453,-396 456,-396 459,-399 459,-402 459,-402 459,-408 459,-408 459,-411 456,-414 453,-414"/>
<text text-anchor="start" x="317" y="-402.8" font-family="Helvetica,sans-Serif" font-size="9.00">docker&#45;manager.procedure.ts</text>
</a>
</g>
</g>
<!-- src/core/trpc/router.ts&#45;&gt;src/core/trpc/procedures/docker&#45;manager.procedure.ts -->
<g id="edge17" class="edge">
<title>src/core/trpc/router.ts&#45;&gt;src/core/trpc/procedures/docker&#45;manager.procedure.ts</title>
<path fill="none" stroke="#000000" stroke-width="2" stroke-opacity="0.200000" d="M249.37,-440.95C263.16,-434.29 282.89,-425.49 301,-420 306.61,-418.3 312.5,-416.76 318.43,-415.38"/>
<polygon fill="#000000" fill-opacity="0.200000" stroke="#000000" stroke-width="2" stroke-opacity="0.200000" points="318.98,-417.41 324.38,-414.05 318.06,-413.31 318.98,-417.41"/>
</g>
<!-- src/core/trpc/procedures/docker&#45;stats.procedure.ts -->
<g id="node18" class="node">
<title>src/core/trpc/procedures/docker&#45;stats.procedure.ts</title>
<g id="a_node18"><a xlink:href="src/core/trpc/procedures/docker-stats.procedure.ts" xlink:title="docker&#45;stats.procedure.ts">
<path fill="#ddfeff" stroke="black" d="M444,-384C444,-384 324,-384 324,-384 321,-384 318,-381 318,-378 318,-378 318,-372 318,-372 318,-369 321,-366 324,-366 324,-366 444,-366 444,-366 447,-366 450,-369 450,-372 450,-372 450,-378 450,-378 450,-381 447,-384 444,-384"/>
<text text-anchor="start" x="326" y="-372.8" font-family="Helvetica,sans-Serif" font-size="9.00">docker&#45;stats.procedure.ts</text>
</a>
</g>
</g>
<!-- src/core/trpc/router.ts&#45;&gt;src/core/trpc/procedures/docker&#45;stats.procedure.ts -->
<g id="edge18" class="edge">
<title>src/core/trpc/router.ts&#45;&gt;src/core/trpc/procedures/docker&#45;stats.procedure.ts</title>
<path fill="none" stroke="#000000" stroke-width="2" stroke-opacity="0.200000" d="M239.01,-441C250.74,-427.57 274.83,-402.53 301,-390 304.6,-388.28 308.37,-386.75 312.23,-385.4"/>
<polygon fill="#000000" fill-opacity="0.200000" stroke="#000000" stroke-width="2" stroke-opacity="0.200000" points="312.9,-387.39 317.96,-383.55 311.61,-383.4 312.9,-387.39"/>
</g>
<!-- src/core/trpc/procedures/logs.procedure.ts -->
<g id="node19" class="node">
<title>src/core/trpc/procedures/logs.procedure.ts</title>
<g id="a_node19"><a xlink:href="src/core/trpc/procedures/logs.procedure.ts" xlink:title="logs.procedure.ts">
<path fill="#ddfeff" stroke="black" d="M425.5,-504C425.5,-504 342.5,-504 342.5,-504 339.5,-504 336.5,-501 336.5,-498 336.5,-498 336.5,-492 336.5,-492 336.5,-489 339.5,-486 342.5,-486 342.5,-486 425.5,-486 425.5,-486 428.5,-486 431.5,-489 431.5,-492 431.5,-492 431.5,-498 431.5,-498 431.5,-501 428.5,-504 425.5,-504"/>
<text text-anchor="start" x="344.5" y="-492.8" font-family="Helvetica,sans-Serif" font-size="9.00">logs.procedure.ts</text>
</a>
</g>
</g>
<!-- src/core/trpc/router.ts&#45;&gt;src/core/trpc/procedures/logs.procedure.ts -->
<g id="edge19" class="edge">
<title>src/core/trpc/router.ts&#45;&gt;src/core/trpc/procedures/logs.procedure.ts</title>
<path fill="none" stroke="#000000" stroke-width="2" stroke-opacity="0.200000" d="M249.37,-459.05C263.16,-465.71 282.89,-474.51 301,-480 310.29,-482.82 320.34,-485.18 330.12,-487.15"/>
<polygon fill="#000000" fill-opacity="0.200000" stroke="#000000" stroke-width="2" stroke-opacity="0.200000" points="329.87,-489.24 336.16,-488.32 330.67,-485.12 329.87,-489.24"/>
</g>
<!-- src/core/trpc/procedures/stacks.procedure.ts -->
<g id="node20" class="node">
<title>src/core/trpc/procedures/stacks.procedure.ts</title>
<g id="a_node20"><a xlink:href="src/core/trpc/procedures/stacks.procedure.ts" xlink:title="stacks.procedure.ts">
<path fill="#ddfeff" stroke="black" d="M431,-474C431,-474 337,-474 337,-474 334,-474 331,-471 331,-468 331,-468 331,-462 331,-462 331,-459 334,-456 337,-456 337,-456 431,-456 431,-456 434,-456 437,-459 437,-462 437,-462 437,-468 437,-468 437,-471 434,-474 431,-474"/>
<text text-anchor="start" x="339" y="-462.8" font-family="Helvetica,sans-Serif" font-size="9.00">stacks.procedure.ts</text>
</a>
</g>
</g>
<!-- src/core/trpc/router.ts&#45;&gt;src/core/trpc/procedures/stacks.procedure.ts -->
<g id="edge20" class="edge">
<title>src/core/trpc/router.ts&#45;&gt;src/core/trpc/procedures/stacks.procedure.ts</title>
<path fill="none" stroke="#000000" stroke-width="2" stroke-opacity="0.200000" d="M258.24,-452.65C276.64,-454.47 301.81,-456.96 324.72,-459.23"/>
<polygon fill="#000000" fill-opacity="0.200000" stroke="#000000" stroke-width="2" stroke-opacity="0.200000" points="324.62,-461.33 330.8,-459.83 325.04,-457.15 324.62,-461.33"/>
</g>
<!-- src/core/trpc/procedures/api&#45;config.procedure.ts&#45;&gt;src/core/trpc/trpc.ts -->
<g id="edge11" class="edge">
<title>src/core/trpc/procedures/api&#45;config.procedure.ts&#45;&gt;src/core/trpc/trpc.ts</title>
<path fill="none" stroke="#000000" stroke-width="2" stroke-opacity="0.200000" d="M445.21,-442.72C453.61,-443.8 461.96,-444.87 469.58,-445.84"/>
<polygon fill="#000000" fill-opacity="0.200000" stroke="#000000" stroke-width="2" stroke-opacity="0.200000" points="469.56,-447.96 475.78,-446.64 470.1,-443.79 469.56,-447.96"/>
</g>
<!-- src/core/trpc/procedures/docker&#45;manager.procedure.ts&#45;&gt;src/core/trpc/trpc.ts -->
<g id="edge12" class="edge">
<title>src/core/trpc/procedures/docker&#45;manager.procedure.ts&#45;&gt;src/core/trpc/trpc.ts</title>
<path fill="none" stroke="#000000" stroke-width="2" stroke-opacity="0.200000" d="M451.74,-414.09C457.02,-415.74 462.17,-417.7 467,-420 475.41,-424.01 483.4,-430.57 489.62,-436.53"/>
<polygon fill="#000000" fill-opacity="0.200000" stroke="#000000" stroke-width="2" stroke-opacity="0.200000" points="488.28,-438.17 494.01,-440.93 491.26,-435.2 488.28,-438.17"/>
</g>
<!-- src/core/trpc/procedures/docker&#45;stats.procedure.ts&#45;&gt;src/core/trpc/trpc.ts -->
<g id="edge13" class="edge">
<title>src/core/trpc/procedures/docker&#45;stats.procedure.ts&#45;&gt;src/core/trpc/trpc.ts</title>
<path fill="none" stroke="#000000" stroke-width="2" stroke-opacity="0.200000" d="M450.26,-381.45C456.21,-383.63 461.91,-386.43 467,-390 482.41,-400.81 492.04,-420.75 497.21,-434.66"/>
<polygon fill="#000000" fill-opacity="0.200000" stroke="#000000" stroke-width="2" stroke-opacity="0.200000" points="495.31,-435.6 499.28,-440.57 499.28,-434.22 495.31,-435.6"/>
</g>
<!-- src/core/trpc/procedures/logs.procedure.ts&#45;&gt;src/core/trpc/trpc.ts -->
<g id="edge14" class="edge">
<title>src/core/trpc/procedures/logs.procedure.ts&#45;&gt;src/core/trpc/trpc.ts</title>
<path fill="none" stroke="#000000" stroke-width="2" stroke-opacity="0.200000" d="M431.87,-490.79C443.72,-488.56 456.16,-485.17 467,-480 475.41,-475.99 483.4,-469.43 489.62,-463.47"/>
<polygon fill="#000000" fill-opacity="0.200000" stroke="#000000" stroke-width="2" stroke-opacity="0.200000" points="491.26,-464.8 494.01,-459.07 488.28,-461.83 491.26,-464.8"/>
</g>
<!-- src/core/trpc/procedures/stacks.procedure.ts&#45;&gt;src/core/trpc/trpc.ts -->
<g id="edge15" class="edge">
<title>src/core/trpc/procedures/stacks.procedure.ts&#45;&gt;src/core/trpc/trpc.ts</title>
<path fill="none" stroke="#000000" stroke-width="2" stroke-opacity="0.200000" d="M437.34,-458.29C448.43,-456.87 459.81,-455.41 469.87,-454.12"/>
<polygon fill="#000000" fill-opacity="0.200000" stroke="#000000" stroke-width="2" stroke-opacity="0.200000" points="470.27,-456.18 475.96,-453.34 469.74,-452.02 470.27,-456.18"/>
</g>
<!-- src/core/utils/calculations.ts -->
<g id="node21" class="node">
<title>src/core/utils/calculations.ts</title>
<g id="a_node21"><a xlink:href="src/core/utils/calculations.ts" xlink:title="calculations.ts">
<path fill="#ccffcc" stroke="black" d="M418.5,-720C418.5,-720 349.5,-720 349.5,-720 346.5,-720 343.5,-717 343.5,-714 343.5,-714 343.5,-708 343.5,-708 343.5,-705 346.5,-702 349.5,-702 349.5,-702 418.5,-702 418.5,-702 421.5,-702 424.5,-705 424.5,-708 424.5,-708 424.5,-714 424.5,-714 424.5,-717 421.5,-720 418.5,-720"/>
<text text-anchor="start" x="351.5" y="-708.8" font-family="Helvetica,sans-Serif" font-size="9.00">calculations.ts</text>
</a>
</g>
</g>
<!-- src/core/utils/package&#45;json.ts -->
<g id="node22" class="node">
<title>src/core/utils/package&#45;json.ts</title>
<g id="a_node22"><a xlink:href="src/core/utils/package-json.ts" xlink:title="package&#45;json.ts">
<path fill="#ccffcc" stroke="black" d="M421.5,-690C421.5,-690 346.5,-690 346.5,-690 343.5,-690 340.5,-687 340.5,-684 340.5,-684 340.5,-678 340.5,-678 340.5,-675 343.5,-672 346.5,-672 346.5,-672 421.5,-672 421.5,-672 424.5,-672 427.5,-675 427.5,-678 427.5,-678 427.5,-684 427.5,-684 427.5,-687 424.5,-690 421.5,-690"/>
<text text-anchor="start" x="348.5" y="-678.8" font-family="Helvetica,sans-Serif" font-size="9.00">package&#45;json.ts</text>
</a>
</g>
</g>
<!-- src/core/utils/respone&#45;handler.ts -->
<g id="node23" class="node">
<title>src/core/utils/respone&#45;handler.ts</title>
<g id="a_node23"><a xlink:href="src/core/utils/respone-handler.ts" xlink:title="respone&#45;handler.ts">
<path fill="#ccffcc" stroke="black" d="M428.5,-660C428.5,-660 339.5,-660 339.5,-660 336.5,-660 333.5,-657 333.5,-654 333.5,-654 333.5,-648 333.5,-648 333.5,-645 336.5,-642 339.5,-642 339.5,-642 428.5,-642 428.5,-642 431.5,-642 434.5,-645 434.5,-648 434.5,-648 434.5,-654 434.5,-654 434.5,-657 431.5,-660 428.5,-660"/>
<text text-anchor="start" x="341.5" y="-648.8" font-family="Helvetica,sans-Serif" font-size="9.00">respone&#45;handler.ts</text>
</a>
</g>
</g>
<!-- src/index.ts -->
<g id="node24" class="node">
<title>src/index.ts</title>
<g id="a_node24"><a xlink:href="src/index.ts" xlink:title="index.ts">
<path fill="#ddfeff" stroke="black" d="M113,-34C113,-34 71,-34 71,-34 68,-34 65,-31 65,-28 65,-28 65,-22 65,-22 65,-19 68,-16 71,-16 71,-16 113,-16 113,-16 116,-16 119,-19 119,-22 119,-22 119,-28 119,-28 119,-31 116,-34 113,-34"/>
<text text-anchor="start" x="73.5" y="-22.8" font-family="Helvetica,sans-Serif" font-size="9.00">index.ts</text>
</a>
</g>
</g>
<!-- src/routes/stacks.ts -->
<g id="node25" class="node">
<title>src/routes/stacks.ts</title>
<g id="a_node25"><a xlink:href="src/routes/stacks.ts" xlink:title="stacks.ts">
<path fill="#ddfeff" stroke="black" d="M252.5,-192C252.5,-192 208.5,-192 208.5,-192 205.5,-192 202.5,-189 202.5,-186 202.5,-186 202.5,-180 202.5,-180 202.5,-177 205.5,-174 208.5,-174 208.5,-174 252.5,-174 252.5,-174 255.5,-174 258.5,-177 258.5,-180 258.5,-180 258.5,-186 258.5,-186 258.5,-189 255.5,-192 252.5,-192"/>
<text text-anchor="start" x="210.5" y="-180.8" font-family="Helvetica,sans-Serif" font-size="9.00">stacks.ts</text>
</a>
</g>
</g>
<!-- src/index.ts&#45;&gt;src/routes/stacks.ts -->
<g id="edge23" class="edge">
<title>src/index.ts&#45;&gt;src/routes/stacks.ts</title>
<path fill="none" stroke="#000000" stroke-width="2" stroke-opacity="0.200000" d="M119.03,-23.37C133.3,-24 150.05,-27.5 160,-39 178.8,-60.72 149.57,-145.97 168,-168 174.96,-176.31 185.68,-180.45 196.24,-182.39"/>
<polygon fill="#000000" fill-opacity="0.200000" stroke="#000000" stroke-width="2" stroke-opacity="0.200000" points="196.17,-184.5 202.41,-183.29 196.78,-180.34 196.17,-184.5"/>
</g>
<!-- src/plugins/example.plugin.ts -->
<g id="node26" class="node">
<title>src/plugins/example.plugin.ts</title>
<g id="a_node26"><a xlink:href="src/plugins/example.plugin.ts" xlink:title="example.plugin.ts">
<path fill="#ccffcc" stroke="black" d="M135,-308C135,-308 49,-308 49,-308 46,-308 43,-305 43,-302 43,-302 43,-296 43,-296 43,-293 46,-290 49,-290 49,-290 135,-290 135,-290 138,-290 141,-293 141,-296 141,-296 141,-302 141,-302 141,-305 138,-308 135,-308"/>
<text text-anchor="start" x="51" y="-296.8" font-family="Helvetica,sans-Serif" font-size="9.00">example.plugin.ts</text>
</a>
</g>
</g>
<!-- src/plugins/telegram.plugin.ts -->
<g id="node27" class="node">
<title>src/plugins/telegram.plugin.ts</title>
<g id="a_node27"><a xlink:href="src/plugins/telegram.plugin.ts" xlink:title="telegram.plugin.ts">
<path fill="#ccffcc" stroke="black" d="M136,-278C136,-278 48,-278 48,-278 45,-278 42,-275 42,-272 42,-272 42,-266 42,-266 42,-263 45,-260 48,-260 48,-260 136,-260 136,-260 139,-260 142,-263 142,-266 142,-266 142,-272 142,-272 142,-275 139,-278 136,-278"/>
<text text-anchor="start" x="50" y="-266.8" font-family="Helvetica,sans-Serif" font-size="9.00">telegram.plugin.ts</text>
</a>
</g>
</g>
<!-- src/routes/api&#45;config.ts -->
<g id="node28" class="node">
<title>src/routes/api&#45;config.ts</title>
<g id="a_node28"><a xlink:href="src/routes/api-config.ts" xlink:title="api&#45;config.ts">
<path fill="#ccffcc" stroke="black" d="M261,-162C261,-162 200,-162 200,-162 197,-162 194,-159 194,-156 194,-156 194,-150 194,-150 194,-147 197,-144 200,-144 200,-144 261,-144 261,-144 264,-144 267,-147 267,-150 267,-150 267,-156 267,-156 267,-159 264,-162 261,-162"/>
<text text-anchor="start" x="202" y="-150.8" font-family="Helvetica,sans-Serif" font-size="9.00">api&#45;config.ts</text>
</a>
</g>
</g>
<!-- src/routes/docker&#45;manager.ts -->
<g id="node29" class="node">
<title>src/routes/docker&#45;manager.ts</title>
<g id="a_node29"><a xlink:href="src/routes/docker-manager.ts" xlink:title="docker&#45;manager.ts">
<path fill="#ccffcc" stroke="black" d="M275,-132C275,-132 186,-132 186,-132 183,-132 180,-129 180,-126 180,-126 180,-120 180,-120 180,-117 183,-114 186,-114 186,-114 275,-114 275,-114 278,-114 281,-117 281,-120 281,-120 281,-126 281,-126 281,-129 278,-132 275,-132"/>
<text text-anchor="start" x="188" y="-120.8" font-family="Helvetica,sans-Serif" font-size="9.00">docker&#45;manager.ts</text>
</a>
</g>
</g>
<!-- src/routes/docker&#45;stats.ts -->
<g id="node30" class="node">
<title>src/routes/docker&#45;stats.ts</title>
<g id="a_node30"><a xlink:href="src/routes/docker-stats.ts" xlink:title="docker&#45;stats.ts">
<path fill="#ccffcc" stroke="black" d="M266,-102C266,-102 195,-102 195,-102 192,-102 189,-99 189,-96 189,-96 189,-90 189,-90 189,-87 192,-84 195,-84 195,-84 266,-84 266,-84 269,-84 272,-87 272,-90 272,-90 272,-96 272,-96 272,-99 269,-102 266,-102"/>
<text text-anchor="start" x="197" y="-90.8" font-family="Helvetica,sans-Serif" font-size="9.00">docker&#45;stats.ts</text>
</a>
</g>
</g>
<!-- src/routes/docker&#45;websocket.ts -->
<g id="node31" class="node">
<title>src/routes/docker&#45;websocket.ts</title>
<g id="a_node31"><a xlink:href="src/routes/docker-websocket.ts" xlink:title="docker&#45;websocket.ts">
<path fill="#ccffcc" stroke="black" d="M279,-72C279,-72 182,-72 182,-72 179,-72 176,-69 176,-66 176,-66 176,-60 176,-60 176,-57 179,-54 182,-54 182,-54 279,-54 279,-54 282,-54 285,-57 285,-60 285,-60 285,-66 285,-66 285,-69 282,-72 279,-72"/>
<text text-anchor="start" x="184" y="-60.8" font-family="Helvetica,sans-Serif" font-size="9.00">docker&#45;websocket.ts</text>
</a>
</g>
</g>
<!-- src/routes/logs.ts -->
<g id="node32" class="node">
<title>src/routes/logs.ts</title>
<g id="a_node32"><a xlink:href="src/routes/logs.ts" xlink:title="logs.ts">
<path fill="#ccffcc" stroke="black" d="M251.5,-42C251.5,-42 209.5,-42 209.5,-42 206.5,-42 203.5,-39 203.5,-36 203.5,-36 203.5,-30 203.5,-30 203.5,-27 206.5,-24 209.5,-24 209.5,-24 251.5,-24 251.5,-24 254.5,-24 257.5,-27 257.5,-30 257.5,-30 257.5,-36 257.5,-36 257.5,-39 254.5,-42 251.5,-42"/>
<text text-anchor="start" x="215.5" y="-30.8" font-family="Helvetica,sans-Serif" font-size="9.00">logs.ts</text>
</a>
</g>
</g>
<!-- src/typings/database.ts -->
<g id="node33" class="node">
<title>src/typings/database.ts</title>
<g id="a_node33"><a xlink:href="src/typings/database.ts" xlink:title="database.ts">
<path fill="#ccffcc" stroke="black" d="M120.5,-218C120.5,-218 63.5,-218 63.5,-218 60.5,-218 57.5,-215 57.5,-212 57.5,-212 57.5,-206 57.5,-206 57.5,-203 60.5,-200 63.5,-200 63.5,-200 120.5,-200 120.5,-200 123.5,-200 126.5,-203 126.5,-206 126.5,-206 126.5,-212 126.5,-212 126.5,-215 123.5,-218 120.5,-218"/>
<text text-anchor="start" x="65.5" y="-206.8" font-family="Helvetica,sans-Serif" font-size="9.00">database.ts</text>
</a>
</g>
</g>
<!-- src/typings/docker&#45;compose.ts -->
<g id="node34" class="node">
<title>src/typings/docker&#45;compose.ts</title>
<g id="a_node34"><a xlink:href="src/typings/docker-compose.ts" xlink:title="docker&#45;compose.ts">
<path fill="#ccffcc" stroke="black" d="M136.5,-188C136.5,-188 47.5,-188 47.5,-188 44.5,-188 41.5,-185 41.5,-182 41.5,-182 41.5,-176 41.5,-176 41.5,-173 44.5,-170 47.5,-170 47.5,-170 136.5,-170 136.5,-170 139.5,-170 142.5,-173 142.5,-176 142.5,-176 142.5,-182 142.5,-182 142.5,-185 139.5,-188 136.5,-188"/>
<text text-anchor="start" x="49.5" y="-176.8" font-family="Helvetica,sans-Serif" font-size="9.00">docker&#45;compose.ts</text>
</a>
</g>
</g>
<!-- src/typings/docker.ts -->
<g id="node35" class="node">
<title>src/typings/docker.ts</title>
<g id="a_node35"><a xlink:href="src/typings/docker.ts" xlink:title="docker.ts">
<path fill="#ccffcc" stroke="black" d="M115,-158C115,-158 69,-158 69,-158 66,-158 63,-155 63,-152 63,-152 63,-146 63,-146 63,-143 66,-140 69,-140 69,-140 115,-140 115,-140 118,-140 121,-143 121,-146 121,-146 121,-152 121,-152 121,-155 118,-158 115,-158"/>
<text text-anchor="start" x="71" y="-146.8" font-family="Helvetica,sans-Serif" font-size="9.00">docker.ts</text>
</a>
</g>
</g>
<!-- src/typings/dockerode.ts -->
<g id="node36" class="node">
<title>src/typings/dockerode.ts</title>
<g id="a_node36"><a xlink:href="src/typings/dockerode.ts" xlink:title="dockerode.ts">
<path fill="#ccffcc" stroke="black" d="M123.5,-128C123.5,-128 60.5,-128 60.5,-128 57.5,-128 54.5,-125 54.5,-122 54.5,-122 54.5,-116 54.5,-116 54.5,-113 57.5,-110 60.5,-110 60.5,-110 123.5,-110 123.5,-110 126.5,-110 129.5,-113 129.5,-116 129.5,-116 129.5,-122 129.5,-122 129.5,-125 126.5,-128 123.5,-128"/>
<text text-anchor="start" x="62.5" y="-116.8" font-family="Helvetica,sans-Serif" font-size="9.00">dockerode.ts</text>
</a>
</g>
</g>
<!-- src/typings/plugin.ts -->
<g id="node37" class="node">
<title>src/typings/plugin.ts</title>
<g id="a_node37"><a xlink:href="src/typings/plugin.ts" xlink:title="plugin.ts">
<path fill="#ccffcc" stroke="black" d="M114,-98C114,-98 70,-98 70,-98 67,-98 64,-95 64,-92 64,-92 64,-86 64,-86 64,-83 67,-80 70,-80 70,-80 114,-80 114,-80 117,-80 120,-83 120,-86 120,-86 120,-92 120,-92 120,-95 117,-98 114,-98"/>
<text text-anchor="start" x="72" y="-86.8" font-family="Helvetica,sans-Serif" font-size="9.00">plugin.ts</text>
</a>
</g>
</g>
<!-- src/typings/websocket.ts -->
<g id="node38" class="node">
<title>src/typings/websocket.ts</title>
<g id="a_node38"><a xlink:href="src/typings/websocket.ts" xlink:title="websocket.ts">
<path fill="#ccffcc" stroke="black" d="M124,-68C124,-68 60,-68 60,-68 57,-68 54,-65 54,-62 54,-62 54,-56 54,-56 54,-53 57,-50 60,-50 60,-50 124,-50 124,-50 127,-50 130,-53 130,-56 130,-56 130,-62 130,-62 130,-65 127,-68 124,-68"/>
<text text-anchor="start" x="62" y="-56.8" font-family="Helvetica,sans-Serif" font-size="9.00">websocket.ts</text>
</a>
</g>
</g>
</g>
</svg>
