<?xml version="1.0" encoding="UTF-8" standalone="no"?>
<!DOCTYPE svg PUBLIC "-//W3C//DTD SVG 1.1//EN"
 "http://www.w3.org/Graphics/SVG/1.1/DTD/svg11.dtd">
<!-- Generated by graphviz version 2.43.0 (0)
 -->
<!-- Title: dependency&#45;cruiser output Pages: 1 -->
<svg width="422pt" height="261pt"
 viewBox="0.00 0.00 422.20 260.94" xmlns="http://www.w3.org/2000/svg" xmlns:xlink="http://www.w3.org/1999/xlink">
<g id="graph0" class="graph" transform="scale(1 1) rotate(0) translate(4 256.94)">
<title>dependency&#45;cruiser output</title>
<polygon fill="white" stroke="transparent" points="-4,4 -4,-256.94 418.2,-256.94 418.2,4 -4,4"/>
<g id="clust1" class="cluster">
<title>cluster_src</title>
<path fill="#ffffff" stroke="black" stroke-width="2" d="M20,-10.94C20,-10.94 340.2,-10.94 340.2,-10.94 346.2,-10.94 352.2,-16.94 352.2,-22.94 352.2,-22.94 352.2,-232.94 352.2,-232.94 352.2,-238.94 346.2,-244.94 340.2,-244.94 340.2,-244.94 20,-244.94 20,-244.94 14,-244.94 8,-238.94 8,-232.94 8,-232.94 8,-22.94 8,-22.94 8,-16.94 14,-10.94 20,-10.94"/>
<text text-anchor="middle" x="180.1" y="-233.74" font-family="Helvetica,sans-Serif" font-weight="bold" font-size="9.00">src</text>
</g>
<g id="clust2" class="cluster">
<title>cluster_src/core</title>
<path fill="#ffffff" stroke="black" stroke-width="2" d="M39.6,-64.94C39.6,-64.94 332.2,-64.94 332.2,-64.94 338.2,-64.94 344.2,-70.94 344.2,-76.94 344.2,-76.94 344.2,-178.94 344.2,-178.94 344.2,-184.94 338.2,-190.94 332.2,-190.94 332.2,-190.94 39.6,-190.94 39.6,-190.94 33.6,-190.94 27.6,-184.94 27.6,-178.94 27.6,-178.94 27.6,-76.94 27.6,-76.94 27.6,-70.94 33.6,-64.94 39.6,-64.94"/>
<text text-anchor="middle" x="185.9" y="-179.74" font-family="Helvetica,sans-Serif" font-weight="bold" font-size="9.00">core</text>
</g>
<g id="clust3" class="cluster">
<title>cluster_src/core/trpc</title>
<path fill="#ffffff" stroke="black" stroke-width="2" d="M47.6,-112.94C47.6,-112.94 124.2,-112.94 124.2,-112.94 130.2,-112.94 136.2,-118.94 136.2,-124.94 136.2,-124.94 136.2,-152.94 136.2,-152.94 136.2,-158.94 130.2,-164.94 124.2,-164.94 124.2,-164.94 47.6,-164.94 47.6,-164.94 41.6,-164.94 35.6,-158.94 35.6,-152.94 35.6,-152.94 35.6,-124.94 35.6,-124.94 35.6,-118.94 41.6,-112.94 47.6,-112.94"/>
<text text-anchor="start" x="74.9" y="-153.74" font-family="Helvetica,sans-Serif" font-weight="bold" font-size="9.00">trpc</text>
</g>
<!-- . -->
<g id="node1" class="node">
<title>.</title>
<g id="a_node1"><a xlink:href="https://nodejs.org/api/..html" xlink:title=".">
<polygon fill="#ffffcc" stroke="grey" points="414.2,-114.94 362.2,-114.94 360.2,-112.94 360.2,-96.94 412.2,-96.94 414.2,-98.94 414.2,-114.94"/>
<polyline fill="none" stroke="grey" points="412.2,-112.94 360.2,-112.94 "/>
<polyline fill="none" stroke="grey" points="412.2,-112.94 412.2,-96.94 "/>
<polyline fill="none" stroke="grey" points="412.2,-112.94 414.2,-114.94 "/>
<text text-anchor="middle" x="387.2" y="-103.74" font-family="Helvetica,sans-Serif" font-size="9.00" fill="grey">.</text>
</a>
</g>
</g>
<!-- fs -->
<g id="node2" class="node">
<title>fs</title>
<g id="a_node2"><a xlink:href="https://nodejs.org/api/fs.html" xlink:title="fs">
<polygon fill="#ffffcc" stroke="grey" points="414.2,-144.94 362.2,-144.94 360.2,-142.94 360.2,-126.94 412.2,-126.94 414.2,-128.94 414.2,-144.94"/>
<polyline fill="none" stroke="grey" points="412.2,-142.94 360.2,-142.94 "/>
<polyline fill="none" stroke="grey" points="412.2,-142.94 412.2,-126.94 "/>
<polyline fill="none" stroke="grey" points="412.2,-142.94 414.2,-144.94 "/>
<text text-anchor="middle" x="387.2" y="-133.74" font-family="Helvetica,sans-Serif" font-size="9.00" fill="grey">fs</text>
</a>
</g>
</g>
<!-- src -->
<!-- src/routes -->
<g id="node4" class="node">
<title>src/routes</title>
<g id="a_node4"><a xlink:href="src/routes" xlink:title="routes">
<polygon fill="#ffffcc" stroke="black" points="121.2,-46.94 69.2,-46.94 67.2,-44.94 67.2,-28.94 119.2,-28.94 121.2,-30.94 121.2,-46.94"/>
<polyline fill="none" stroke="black" points="119.2,-44.94 67.2,-44.94 "/>
<polyline fill="none" stroke="black" points="119.2,-44.94 119.2,-28.94 "/>
<polyline fill="none" stroke="black" points="119.2,-44.94 121.2,-46.94 "/>
<text text-anchor="start" x="79.7" y="-35.74" font-family="Helvetica,sans-Serif" font-size="9.00">routes</text>
</a>
</g>
</g>
<!-- src&#45;&gt;src/routes -->
<g id="edge1" class="edge">
<title>src&#45;&gt;src/routes</title>
<path fill="none" stroke="#000000" stroke-width="2" stroke-opacity="0.200000" d="M18.87,-79.32C19.16,-74.89 20.6,-62.46 27.6,-55.94 36.65,-47.5 49.28,-42.96 61.04,-40.53"/>
<polygon fill="#000000" fill-opacity="0.200000" stroke="#000000" stroke-width="2" stroke-opacity="0.200000" points="61.55,-42.57 67.08,-39.45 60.81,-38.44 61.55,-42.57"/>
</g>
<!-- src/core/database -->
<g id="node5" class="node">
<title>src/core/database</title>
<g id="a_node5"><a xlink:href="src/core/database" xlink:title="database">
<polygon fill="#ffffcc" stroke="black" points="269.2,-120.94 213.2,-120.94 211.2,-118.94 211.2,-102.94 267.2,-102.94 269.2,-104.94 269.2,-120.94"/>
<polyline fill="none" stroke="black" points="267.2,-118.94 211.2,-118.94 "/>
<polyline fill="none" stroke="black" points="267.2,-118.94 267.2,-102.94 "/>
<polyline fill="none" stroke="black" points="267.2,-118.94 269.2,-120.94 "/>
<text text-anchor="start" x="219.2" y="-109.74" font-family="Helvetica,sans-Serif" font-size="9.00">database</text>
</a>
</g>
</g>
<!-- src&#45;&gt;src/core/database -->
<g id="edge2" class="edge">
<title>src&#45;&gt;src/core/database</title>
<path fill="none" stroke="#000000" stroke-width="2" stroke-opacity="0.200000" d="M19.61,-80.69C21.16,-80.23 24.61,-79.27 27.6,-78.94 36.26,-77.97 38.49,-78.82 47.2,-78.94 80.76,-79.38 167.61,-69.11 198.2,-82.94 205.94,-86.43 204.48,-91.75 211.2,-96.94 212.42,-97.88 213.71,-98.8 215.04,-99.68"/>
<polygon fill="#000000" fill-opacity="0.200000" stroke="#000000" stroke-width="2" stroke-opacity="0.200000" points="214.08,-101.56 220.29,-102.92 216.29,-97.98 214.08,-101.56"/>
</g>
<!-- src/core/docker -->
<g id="node6" class="node">
<title>src/core/docker</title>
<g id="a_node6"><a xlink:href="src/core/docker" xlink:title="docker">
<polygon fill="#ffffcc" stroke="black" points="198.2,-136.94 146.2,-136.94 144.2,-134.94 144.2,-118.94 196.2,-118.94 198.2,-120.94 198.2,-136.94"/>
<polyline fill="none" stroke="black" points="196.2,-134.94 144.2,-134.94 "/>
<polyline fill="none" stroke="black" points="196.2,-134.94 196.2,-118.94 "/>
<polyline fill="none" stroke="black" points="196.2,-134.94 198.2,-136.94 "/>
<text text-anchor="start" x="155.7" y="-125.74" font-family="Helvetica,sans-Serif" font-size="9.00">docker</text>
</a>
</g>
</g>
<!-- src&#45;&gt;src/core/docker -->
<g id="edge3" class="edge">
<title>src&#45;&gt;src/core/docker</title>
<path fill="none" stroke="#000000" stroke-width="2" stroke-opacity="0.200000" d="M19.77,-81.08C28.16,-82.37 89.52,-92.12 136.2,-109.94 140.68,-111.65 145.31,-113.81 149.67,-116.04"/>
<polygon fill="#000000" fill-opacity="0.200000" stroke="#000000" stroke-width="2" stroke-opacity="0.200000" points="148.72,-117.91 155,-118.87 150.69,-114.2 148.72,-117.91"/>
</g>
<!-- src/core/plugins -->
<g id="node7" class="node">
<title>src/core/plugins</title>
<g id="a_node7"><a xlink:href="src/core/plugins" xlink:title="plugins">
<polygon fill="#ffffcc" stroke="black" points="267.2,-90.94 215.2,-90.94 213.2,-88.94 213.2,-72.94 265.2,-72.94 267.2,-74.94 267.2,-90.94"/>
<polyline fill="none" stroke="black" points="265.2,-88.94 213.2,-88.94 "/>
<polyline fill="none" stroke="black" points="265.2,-88.94 265.2,-72.94 "/>
<polyline fill="none" stroke="black" points="265.2,-88.94 267.2,-90.94 "/>
<text text-anchor="start" x="223.2" y="-79.74" font-family="Helvetica,sans-Serif" font-size="9.00">plugins</text>
</a>
</g>
</g>
<!-- src&#45;&gt;src/core/plugins -->
<g id="edge4" class="edge">
<title>src&#45;&gt;src/core/plugins</title>
<path fill="none" stroke="#000000" stroke-width="2" stroke-opacity="0.200000" d="M19.38,-79.6C20.53,-77.14 23.37,-71.97 27.6,-69.94 95.94,-37.09 123.07,-61.68 198.2,-71.94 201.04,-72.33 203.98,-72.83 206.91,-73.4"/>
<polygon fill="#000000" fill-opacity="0.200000" stroke="#000000" stroke-width="2" stroke-opacity="0.200000" points="206.58,-75.48 212.89,-74.67 207.45,-71.37 206.58,-75.48"/>
</g>
<!-- src/core/trpc -->
<!-- src&#45;&gt;src/core/trpc -->
<g id="edge5" class="edge">
<title>src&#45;&gt;src/core/trpc</title>
<path fill="none" stroke="#000000" stroke-width="2" stroke-opacity="0.200000" d="M18.59,-82.85C17.96,-89.44 16.81,-111.51 27.6,-123.94 30.04,-126.75 33.9,-128.24 37.3,-129.04"/>
<polygon fill="#000000" fill-opacity="0.200000" stroke="#000000" stroke-width="2" stroke-opacity="0.200000" points="37.06,-131.12 43.29,-129.9 37.65,-126.97 37.06,-131.12"/>
</g>
<!-- src/core/utils -->
<g id="node9" class="node">
<title>src/core/utils</title>
<g id="a_node9"><a xlink:href="src/core/utils" xlink:title="utils">
<polygon fill="#ffffcc" stroke="black" points="336.2,-143.94 284.2,-143.94 282.2,-141.94 282.2,-125.94 334.2,-125.94 336.2,-127.94 336.2,-143.94"/>
<polyline fill="none" stroke="black" points="334.2,-141.94 282.2,-141.94 "/>
<polyline fill="none" stroke="black" points="334.2,-141.94 334.2,-125.94 "/>
<polyline fill="none" stroke="black" points="334.2,-141.94 336.2,-143.94 "/>
<text text-anchor="start" x="299.7" y="-132.74" font-family="Helvetica,sans-Serif" font-size="9.00">utils</text>
</a>
</g>
</g>
<!-- src&#45;&gt;src/core/utils -->
<g id="edge6" class="edge">
<title>src&#45;&gt;src/core/utils</title>
<path fill="none" stroke="#000000" stroke-width="2" stroke-opacity="0.200000" d="M18.79,-82.68C18.76,-93.6 19,-152.57 27.6,-167.94 45.5,-199.93 56.54,-217.94 93.2,-217.94 93.2,-217.94 93.2,-217.94 172.2,-217.94 230.15,-217.94 231.77,-176.49 282.2,-147.94 282.79,-147.6 283.4,-147.27 284.01,-146.93"/>
<polygon fill="#000000" fill-opacity="0.200000" stroke="#000000" stroke-width="2" stroke-opacity="0.200000" points="285.31,-148.61 289.61,-143.94 283.33,-144.91 285.31,-148.61"/>
</g>
<!-- src/routes&#45;&gt;. -->
<g id="edge34" class="edge">
<title>src/routes&#45;&gt;.</title>
<path fill="none" stroke="#000000" stroke-dasharray="5,2" stroke-opacity="0.200000" d="M107.75,-28.69C117.23,-22.31 130.84,-14.37 144.2,-10.94 198,2.9 215.74,4.17 269.2,-10.94 310.86,-22.71 319.99,-33 352.2,-61.94 361.92,-70.67 370.88,-82.48 377.15,-91.66"/>
<polygon fill="none" stroke="#000000" stroke-opacity="0.200000" points="375.45,-92.89 380.52,-96.72 378.94,-90.57 375.45,-92.89"/>
</g>
<!-- src/routes&#45;&gt;src/core/database -->
<g id="edge29" class="edge">
<title>src/routes&#45;&gt;src/core/database</title>
<path fill="none" stroke="#000000" stroke-width="2" stroke-opacity="0.200000" d="M121.59,-41.03C144.18,-44.88 176.4,-53.39 198.2,-71.94 207.74,-80.05 202.4,-88.03 211.2,-96.94 211.88,-97.62 212.59,-98.29 213.34,-98.93"/>
<polygon fill="#000000" fill-opacity="0.200000" stroke="#000000" stroke-width="2" stroke-opacity="0.200000" points="212.53,-100.94 218.61,-102.8 215.02,-97.55 212.53,-100.94"/>
</g>
<!-- src/routes&#45;&gt;src/core/docker -->
<g id="edge33" class="edge">
<title>src/routes&#45;&gt;src/core/docker</title>
<path fill="none" stroke="#000000" stroke-width="2" stroke-opacity="0.200000" d="M118.86,-47.15C125.43,-50.8 131.93,-55.67 136.2,-61.94 149.12,-80.89 131.22,-94.02 144.2,-112.94 144.58,-113.5 144.99,-114.04 145.43,-114.56"/>
<polygon fill="#000000" fill-opacity="0.200000" stroke="#000000" stroke-width="2" stroke-opacity="0.200000" points="144.1,-116.2 149.9,-118.8 146.99,-113.15 144.1,-116.2"/>
</g>
<!-- src/routes&#45;&gt;src/core/utils -->
<g id="edge31" class="edge">
<title>src/routes&#45;&gt;src/core/utils</title>
<path fill="none" stroke="#000000" stroke-width="2" stroke-opacity="0.200000" d="M117.91,-28.86C153.61,-16.2 223.52,1.83 269.2,-29.94 298.68,-50.43 305.92,-95.99 307.67,-119.79"/>
<polygon fill="#000000" fill-opacity="0.200000" stroke="#000000" stroke-width="2" stroke-opacity="0.200000" points="305.58,-120.02 308.03,-125.89 309.77,-119.77 305.58,-120.02"/>
</g>
<!-- src/typings -->
<g id="node11" class="node">
<title>src/typings</title>
<g id="a_node11"><a xlink:href="src/typings" xlink:title="typings">
<polygon fill="#ffffcc" stroke="black" points="336.2,-216.94 284.2,-216.94 282.2,-214.94 282.2,-198.94 334.2,-198.94 336.2,-200.94 336.2,-216.94"/>
<polyline fill="none" stroke="black" points="334.2,-214.94 282.2,-214.94 "/>
<polyline fill="none" stroke="black" points="334.2,-214.94 334.2,-198.94 "/>
<polyline fill="none" stroke="black" points="334.2,-214.94 336.2,-216.94 "/>
<text text-anchor="start" x="292.2" y="-205.74" font-family="Helvetica,sans-Serif" font-size="9.00">typings</text>
</a>
</g>
</g>
<!-- src/routes&#45;&gt;src/typings -->
<g id="edge32" class="edge">
<title>src/routes&#45;&gt;src/typings</title>
<path fill="none" stroke="#000000" stroke-width="2" stroke-opacity="0.200000" d="M121.41,-32.19C160.49,-25.34 233.29,-19.62 269.2,-61.94 288.27,-84.41 265.86,-169.4 282.2,-193.94 282.28,-194.05 282.36,-194.17 282.44,-194.29"/>
<polygon fill="#000000" fill-opacity="0.200000" stroke="#000000" stroke-width="2" stroke-opacity="0.200000" points="281.16,-195.99 286.81,-198.9 284.21,-193.1 281.16,-195.99"/>
</g>
<!-- src/core/stacks -->
<g id="node12" class="node">
<title>src/core/stacks</title>
<g id="a_node12"><a xlink:href="src/core/stacks" xlink:title="stacks">
<polygon fill="#ffffcc" stroke="black" points="198.2,-106.94 146.2,-106.94 144.2,-104.94 144.2,-88.94 196.2,-88.94 198.2,-90.94 198.2,-106.94"/>
<polyline fill="none" stroke="black" points="196.2,-104.94 144.2,-104.94 "/>
<polyline fill="none" stroke="black" points="196.2,-104.94 196.2,-88.94 "/>
<polyline fill="none" stroke="black" points="196.2,-104.94 198.2,-106.94 "/>
<text text-anchor="start" x="156.7" y="-95.74" font-family="Helvetica,sans-Serif" font-size="9.00">stacks</text>
</a>
</g>
</g>
<!-- src/routes&#45;&gt;src/core/stacks -->
<g id="edge30" class="edge">
<title>src/routes&#45;&gt;src/core/stacks</title>
<path fill="none" stroke="#000000" stroke-width="2" stroke-opacity="0.200000" d="M116.91,-46.94C123.86,-50.71 131.07,-55.69 136.2,-61.94 142.11,-69.12 138.49,-74.94 144.47,-83.96"/>
<polygon fill="#000000" fill-opacity="0.200000" stroke="#000000" stroke-width="2" stroke-opacity="0.200000" points="142.86,-85.3 148.25,-88.66 146.13,-82.67 142.86,-85.3"/>
</g>
<!-- src/core/database&#45;&gt;. -->
<g id="edge9" class="edge">
<title>src/core/database&#45;&gt;.</title>
<path fill="none" stroke="#000000" stroke-width="2" stroke-opacity="0.200000" d="M269.5,-110.77C293.66,-109.77 328.41,-108.33 353.71,-107.28"/>
<polygon fill="#000000" fill-opacity="0.200000" stroke="#000000" stroke-width="2" stroke-opacity="0.200000" points="354.01,-109.37 359.92,-107.02 353.84,-105.17 354.01,-109.37"/>
</g>
<!-- src/core/database&#45;&gt;src/core/utils -->
<g id="edge7" class="edge">
<title>src/core/database&#45;&gt;src/core/utils</title>
<path fill="none" stroke="#000000" stroke-width="2" stroke-opacity="0.200000" d="M269.23,-117.11C272.8,-118.27 276.47,-119.53 280.04,-120.82"/>
<polygon fill="#000000" fill-opacity="0.200000" stroke="#000000" stroke-width="2" stroke-opacity="0.200000" points="286.72,-125.68 293.08,-125.91 288.25,-121.77 286.72,-125.68"/>
<polyline fill="none" stroke="#000000" stroke-width="2" stroke-opacity="0.200000" points="287.49,-123.73 284.69,-122.64 "/>
<ellipse fill="none" stroke="#000000" stroke-width="2" stroke-opacity="0.200000" cx="282.46" cy="-121.76" rx="2.4" ry="2.4"/>
</g>
<!-- src/core/database&#45;&gt;src/typings -->
<g id="edge8" class="edge">
<title>src/core/database&#45;&gt;src/typings</title>
<path fill="none" stroke="#000000" stroke-opacity="0.200000" d="M265.33,-121.07C266.77,-122.21 268.08,-123.5 269.2,-124.94 288.36,-149.57 263.78,-168.75 282.2,-193.94 282.28,-194.05 282.37,-194.16 282.45,-194.28"/>
<polygon fill="none" stroke="#000000" stroke-opacity="0.200000" points="281.25,-196.04 286.98,-198.78 284.21,-193.06 281.25,-196.04"/>
</g>
<!-- src/core/docker&#45;&gt;src/core/database -->
<g id="edge10" class="edge">
<title>src/core/docker&#45;&gt;src/core/database</title>
<path fill="none" stroke="#000000" stroke-width="2" stroke-opacity="0.200000" d="M198.3,-121.71C200.48,-121.18 202.71,-120.65 204.95,-120.12"/>
<polygon fill="#000000" fill-opacity="0.200000" stroke="#000000" stroke-width="2" stroke-opacity="0.200000" points="205.5,-122.14 210.85,-118.71 204.52,-118.06 205.5,-122.14"/>
</g>
<!-- src/core/docker&#45;&gt;src/core/utils -->
<g id="edge11" class="edge">
<title>src/core/docker&#45;&gt;src/core/utils</title>
<path fill="none" stroke="#000000" stroke-width="2" stroke-opacity="0.200000" d="M198.46,-135.62C202.69,-136.58 207.04,-137.41 211.2,-137.94 232.68,-140.65 257.03,-139.88 275.96,-138.45"/>
<polygon fill="#000000" fill-opacity="0.200000" stroke="#000000" stroke-width="2" stroke-opacity="0.200000" points="276.35,-140.52 282.16,-137.94 276.01,-136.33 276.35,-140.52"/>
</g>
<!-- src/core/docker&#45;&gt;src/typings -->
<g id="edge12" class="edge">
<title>src/core/docker&#45;&gt;src/typings</title>
<path fill="none" stroke="#000000" stroke-width="2" stroke-opacity="0.200000" d="M194.16,-137.2C195.64,-138.32 197.01,-139.56 198.2,-140.94 210.17,-154.74 198.02,-167.28 211.2,-179.94 216.05,-184.59 249.92,-193.72 276.28,-200.29"/>
<polygon fill="#000000" fill-opacity="0.200000" stroke="#000000" stroke-width="2" stroke-opacity="0.200000" points="275.79,-202.33 282.12,-201.74 276.8,-198.26 275.79,-202.33"/>
</g>
<!-- src/core/plugins&#45;&gt;. -->
<g id="edge14" class="edge">
<title>src/core/plugins&#45;&gt;.</title>
<path fill="none" stroke="#000000" stroke-dasharray="5,2" stroke-opacity="0.200000" d="M267.46,-86.28C291.79,-90.31 328.04,-96.31 354.08,-100.62"/>
<polygon fill="#000000" fill-opacity="0.200000" stroke="#000000" stroke-opacity="0.200000" points="353.87,-102.72 360.14,-101.62 354.56,-98.57 353.87,-102.72"/>
</g>
<!-- src/core/plugins&#45;&gt;src/core/utils -->
<g id="edge13" class="edge">
<title>src/core/plugins&#45;&gt;src/core/utils</title>
<path fill="none" stroke="#000000" stroke-width="2" stroke-opacity="0.200000" d="M260.02,-91.07C263.18,-92.87 266.35,-94.85 269.2,-96.94 278.93,-104.06 288.64,-113.52 295.94,-121.21"/>
<polygon fill="#000000" fill-opacity="0.200000" stroke="#000000" stroke-width="2" stroke-opacity="0.200000" points="294.53,-122.78 300.15,-125.74 297.6,-119.92 294.53,-122.78"/>
</g>
<!-- src/core/plugins&#45;&gt;src/typings -->
<g id="edge15" class="edge">
<title>src/core/plugins&#45;&gt;src/typings</title>
<path fill="none" stroke="#000000" stroke-opacity="0.200000" d="M263.36,-91.04C265.6,-92.72 267.63,-94.67 269.2,-96.94 293.98,-132.69 257.46,-158.16 282.2,-193.94 282.28,-194.05 282.36,-194.17 282.44,-194.28"/>
<polygon fill="none" stroke="#000000" stroke-opacity="0.200000" points="281.19,-196.01 286.88,-198.85 284.21,-193.08 281.19,-196.01"/>
</g>
<!-- src/core/trpc/procedures -->
<g id="node13" class="node">
<title>src/core/trpc/procedures</title>
<g id="a_node13"><a xlink:href="src/core/trpc/procedures" xlink:title="procedures">
<polygon fill="#ffffcc" stroke="black" points="128.2,-138.94 62.2,-138.94 60.2,-136.94 60.2,-120.94 126.2,-120.94 128.2,-122.94 128.2,-138.94"/>
<polyline fill="none" stroke="black" points="126.2,-136.94 60.2,-136.94 "/>
<polyline fill="none" stroke="black" points="126.2,-136.94 126.2,-120.94 "/>
<polyline fill="none" stroke="black" points="126.2,-136.94 128.2,-138.94 "/>
<text text-anchor="start" x="68.2" y="-127.74" font-family="Helvetica,sans-Serif" font-size="9.00">procedures</text>
</a>
</g>
</g>
<!-- src/core/trpc&#45;&gt;src/core/trpc/procedures -->
<g id="edge19" class="edge">
<title>src/core/trpc&#45;&gt;src/core/trpc/procedures</title>
<path fill="none" stroke="#000000" stroke-width="2" stroke-opacity="0.200000" d="M46.93,-128.88C47.98,-127.87 50.55,-127.09 53.96,-126.52"/>
<polygon fill="#000000" fill-opacity="0.200000" stroke="#000000" stroke-width="2" stroke-opacity="0.200000" points="54.22,-128.6 59.94,-125.81 53.73,-124.43 54.22,-128.6"/>
</g>
<!-- src/core/utils&#45;&gt;. -->
<g id="edge27" class="edge">
<title>src/core/utils&#45;&gt;.</title>
<path fill="none" stroke="#000000" stroke-dasharray="5,2" stroke-opacity="0.200000" d="M333.83,-125.92C341.12,-123.14 349.24,-120.04 356.87,-117.13"/>
<polygon fill="#000000" fill-opacity="0.200000" stroke="#000000" stroke-opacity="0.200000" points="357.73,-119.05 362.58,-114.95 356.23,-115.13 357.73,-119.05"/>
</g>
<!-- src/core/utils&#45;&gt;fs -->
<g id="edge28" class="edge">
<title>src/core/utils&#45;&gt;fs</title>
<path fill="none" stroke="#000000" stroke-dasharray="5,2" stroke-opacity="0.200000" d="M336.35,-135.28C341.97,-135.36 347.96,-135.43 353.78,-135.51"/>
<polygon fill="#000000" fill-opacity="0.200000" stroke="#000000" stroke-opacity="0.200000" points="353.97,-137.61 360,-135.59 354.03,-133.41 353.97,-137.61"/>
</g>
<!-- src/core/utils&#45;&gt;src/core/database -->
<g id="edge26" class="edge">
<title>src/core/utils&#45;&gt;src/core/database</title>
<path fill="none" stroke="#000000" stroke-width="2" stroke-opacity="0.200000" d="M282.01,-130.35C277.94,-129.06 273.73,-127.63 269.61,-126.14"/>
<polygon fill="#000000" fill-opacity="0.200000" stroke="#000000" stroke-width="2" stroke-opacity="0.200000" points="262.76,-121.22 256.4,-121 261.23,-125.13 262.76,-121.22"/>
<polyline fill="none" stroke="#000000" stroke-width="2" stroke-opacity="0.200000" points="261.99,-123.18 264.79,-124.26 "/>
<ellipse fill="none" stroke="#000000" stroke-width="2" stroke-opacity="0.200000" cx="267.03" cy="-125.14" rx="2.4" ry="2.4"/>
</g>
<!-- src/core -->
<!-- src/typings&#45;&gt;. -->
<g id="edge35" class="edge">
<title>src/typings&#45;&gt;.</title>
<path fill="none" stroke="#000000" stroke-dasharray="5,2" stroke-opacity="0.200000" d="M336.55,-204.12C342.51,-202.04 348.24,-198.84 352.2,-193.94 372.7,-168.54 342.36,-148.27 360.2,-120.94 360.57,-120.37 360.97,-119.82 361.4,-119.29"/>
<polygon fill="none" stroke="#000000" stroke-opacity="0.200000" points="362.96,-120.7 365.8,-115.01 360.04,-117.68 362.96,-120.7"/>
</g>
<!-- src/core/stacks&#45;&gt;src/core/database -->
<g id="edge16" class="edge">
<title>src/core/stacks&#45;&gt;src/core/database</title>
<path fill="none" stroke="#000000" stroke-width="2" stroke-opacity="0.200000" d="M198.3,-103.39C200.48,-103.85 202.71,-104.31 204.95,-104.78"/>
<polygon fill="#000000" fill-opacity="0.200000" stroke="#000000" stroke-width="2" stroke-opacity="0.200000" points="204.54,-106.84 210.85,-106.01 205.4,-102.73 204.54,-106.84"/>
</g>
<!-- src/core/stacks&#45;&gt;src/core/utils -->
<g id="edge17" class="edge">
<title>src/core/stacks&#45;&gt;src/core/utils</title>
<path fill="none" stroke="#000000" stroke-width="2" stroke-opacity="0.200000" d="M189.74,-107.09C192.66,-108.88 195.59,-110.86 198.2,-112.94 204.84,-118.23 203.56,-123.23 211.2,-126.94 231.22,-136.67 256.33,-138.5 275.98,-137.99"/>
<polygon fill="#000000" fill-opacity="0.200000" stroke="#000000" stroke-width="2" stroke-opacity="0.200000" points="276.24,-140.08 282.15,-137.75 276.08,-135.88 276.24,-140.08"/>
</g>
<!-- src/core/stacks&#45;&gt;src/typings -->
<g id="edge18" class="edge">
<title>src/core/stacks&#45;&gt;src/typings</title>
<path fill="none" stroke="#000000" stroke-opacity="0.200000" d="M190.71,-106.95C193.4,-108.71 196,-110.72 198.2,-112.94 206.47,-121.28 203.52,-127.05 211.2,-135.94 232.53,-160.62 244.73,-159.36 269.2,-180.94 275.33,-186.34 275.64,-189.06 282.2,-193.94 282.92,-194.47 283.66,-195 284.42,-195.52"/>
<polygon fill="none" stroke="#000000" stroke-opacity="0.200000" points="283.41,-197.36 289.61,-198.79 285.65,-193.81 283.41,-197.36"/>
</g>
<!-- src/core/trpc/procedures&#45;&gt;src/core/database -->
<g id="edge21" class="edge">
<title>src/core/trpc/procedures&#45;&gt;src/core/database</title>
<path fill="none" stroke="#000000" stroke-width="2" stroke-opacity="0.200000" d="M124.23,-138.96C130.74,-140.61 137.65,-142.08 144.2,-142.94 168,-146.04 175.45,-150.57 198.2,-142.94 208.65,-139.43 218.56,-132.09 226.02,-125.44"/>
<polygon fill="#000000" fill-opacity="0.200000" stroke="#000000" stroke-width="2" stroke-opacity="0.200000" points="227.82,-126.63 230.77,-120.99 224.95,-123.56 227.82,-126.63"/>
</g>
<!-- src/core/trpc/procedures&#45;&gt;src/core/docker -->
<g id="edge24" class="edge">
<title>src/core/trpc/procedures&#45;&gt;src/core/docker</title>
<path fill="none" stroke="#000000" stroke-width="2" stroke-opacity="0.200000" d="M128.31,-129.05C131.39,-128.97 134.51,-128.89 137.58,-128.81"/>
<polygon fill="#000000" fill-opacity="0.200000" stroke="#000000" stroke-width="2" stroke-opacity="0.200000" points="137.85,-130.9 143.79,-128.64 137.74,-126.7 137.85,-130.9"/>
</g>
<!-- src/core/trpc/procedures&#45;&gt;src/core/trpc -->
<g id="edge20" class="edge">
<title>src/core/trpc/procedures&#45;&gt;src/core/trpc</title>
<path fill="none" stroke="#000000" stroke-width="2" stroke-opacity="0.200000" d="M59.94,-134.06C57.19,-133.84 54.66,-133.52 52.55,-133.1"/>
<polygon fill="#000000" fill-opacity="0.200000" stroke="#000000" stroke-width="2" stroke-opacity="0.200000" points="53.28,-131.13 46.93,-130.99 51.81,-135.06 53.28,-131.13"/>
</g>
<!-- src/core/trpc/procedures&#45;&gt;src/core/utils -->
<g id="edge22" class="edge">
<title>src/core/trpc/procedures&#45;&gt;src/core/utils</title>
<path fill="none" stroke="#000000" stroke-width="2" stroke-opacity="0.200000" d="M127.41,-138.99C130.43,-140.19 133.41,-141.5 136.2,-142.94 140.15,-144.97 139.98,-147.53 144.2,-148.94 188.22,-163.61 242.39,-154.04 276.11,-145.07"/>
<polygon fill="#000000" fill-opacity="0.200000" stroke="#000000" stroke-width="2" stroke-opacity="0.200000" points="276.93,-147.02 282.16,-143.41 275.82,-142.97 276.93,-147.02"/>
</g>
<!-- src/core/trpc/procedures&#45;&gt;src/typings -->
<g id="edge23" class="edge">
<title>src/core/trpc/procedures&#45;&gt;src/typings</title>
<path fill="none" stroke="#000000" stroke-width="2" stroke-opacity="0.200000" d="M128.58,-136.79C131.44,-138.43 134.06,-140.44 136.2,-142.94 151.15,-160.34 127.42,-178.29 144.2,-193.94 179.38,-226.72 239.16,-222.46 276.01,-215.68"/>
<polygon fill="#000000" fill-opacity="0.200000" stroke="#000000" stroke-width="2" stroke-opacity="0.200000" points="276.68,-217.69 282.17,-214.49 275.88,-213.57 276.68,-217.69"/>
</g>
<!-- src/core/trpc/procedures&#45;&gt;src/core/stacks -->
<g id="edge25" class="edge">
<title>src/core/trpc/procedures&#45;&gt;src/core/stacks</title>
<path fill="none" stroke="#000000" stroke-width="2" stroke-opacity="0.200000" d="M126.34,-120.8C129.7,-119.59 133.05,-118.3 136.2,-116.94 138.99,-115.73 144.02,-113.02 149.37,-110.02"/>
<polygon fill="#000000" fill-opacity="0.200000" stroke="#000000" stroke-width="2" stroke-opacity="0.200000" points="150.58,-111.75 154.76,-106.96 148.51,-108.1 150.58,-111.75"/>
</g>
</g>
</svg>
