<?xml version="1.0" encoding="UTF-8" standalone="no"?>
<!DOCTYPE svg PUBLIC "-//W3C//DTD SVG 1.1//EN"
 "http://www.w3.org/Graphics/SVG/1.1/DTD/svg11.dtd">
<!-- Generated by graphviz version 2.43.0 (0)
 -->
<!-- Title: dependency&#45;cruiser output Pages: 1 -->
<svg width="368pt" height="304pt"
 viewBox="0.00 0.00 368.00 304.21" xmlns="http://www.w3.org/2000/svg" xmlns:xlink="http://www.w3.org/1999/xlink">
<g id="graph0" class="graph" transform="scale(1 1) rotate(0) translate(4 300.21)">
<title>dependency&#45;cruiser output</title>
<polygon fill="white" stroke="transparent" points="-4,4 -4,-300.21 364,-300.21 364,4 -4,4"/>
<g id="clust1" class="cluster">
<title>cluster_fs</title>
<path fill="#ffffff" stroke="black" stroke-width="2" d="M230.5,-76.21C230.5,-76.21 279.5,-76.21 279.5,-76.21 285.5,-76.21 291.5,-82.21 291.5,-88.21 291.5,-88.21 291.5,-116.21 291.5,-116.21 291.5,-122.21 285.5,-128.21 279.5,-128.21 279.5,-128.21 230.5,-128.21 230.5,-128.21 224.5,-128.21 218.5,-122.21 218.5,-116.21 218.5,-116.21 218.5,-88.21 218.5,-88.21 218.5,-82.21 224.5,-76.21 230.5,-76.21"/>
<text text-anchor="middle" x="255" y="-117.01" font-family="Helvetica,sans-Serif" font-weight="bold" font-size="9.00">fs</text>
</g>
<g id="clust2" class="cluster">
<title>cluster_src</title>
<path fill="#ffffff" stroke="black" stroke-width="2" d="M20,-222.21C20,-222.21 278,-222.21 278,-222.21 284,-222.21 290,-228.21 290,-234.21 290,-234.21 290,-276.21 290,-276.21 290,-282.21 284,-288.21 278,-288.21 278,-288.21 20,-288.21 20,-288.21 14,-288.21 8,-282.21 8,-276.21 8,-276.21 8,-234.21 8,-234.21 8,-228.21 14,-222.21 20,-222.21"/>
<text text-anchor="middle" x="149" y="-277.01" font-family="Helvetica,sans-Serif" font-weight="bold" font-size="9.00">src</text>
</g>
<!-- bun:sqlite -->
<g id="node1" class="node">
<title>bun:sqlite</title>
<g id="a_node1"><a xlink:title="bun:sqlite">
<path fill="#ffffcc" stroke="black" d="M280,-184.21C280,-184.21 230,-184.21 230,-184.21 227,-184.21 224,-181.21 224,-178.21 224,-178.21 224,-172.21 224,-172.21 224,-169.21 227,-166.21 230,-166.21 230,-166.21 280,-166.21 280,-166.21 283,-166.21 286,-169.21 286,-172.21 286,-172.21 286,-178.21 286,-178.21 286,-181.21 283,-184.21 280,-184.21"/>
<text text-anchor="middle" x="255" y="-173.01" font-family="Helvetica,sans-Serif" font-size="9.00">bun:sqlite</text>
</a>
</g>
</g>
<!-- events -->
<g id="node2" class="node">
<title>events</title>
<g id="a_node2"><a xlink:href="https://nodejs.org/api/events.html" xlink:title="events">
<path fill="#ffffcc" stroke="grey" d="M276,-154.21C276,-154.21 234,-154.21 234,-154.21 231,-154.21 228,-151.21 228,-148.21 228,-148.21 228,-142.21 228,-142.21 228,-139.21 231,-136.21 234,-136.21 234,-136.21 276,-136.21 276,-136.21 279,-136.21 282,-139.21 282,-142.21 282,-142.21 282,-148.21 282,-148.21 282,-151.21 279,-154.21 276,-154.21"/>
<text text-anchor="middle" x="255" y="-143.01" font-family="Helvetica,sans-Serif" font-size="9.00" fill="grey">events</text>
</a>
</g>
</g>
<!-- fs -->
<g id="node3" class="node">
<title>fs</title>
<g id="a_node3"><a xlink:href="https://nodejs.org/api/fs.html" xlink:title="fs">
<path fill="#ffffcc" stroke="grey" d="M276,-214.21C276,-214.21 234,-214.21 234,-214.21 231,-214.21 228,-211.21 228,-208.21 228,-208.21 228,-202.21 228,-202.21 228,-199.21 231,-196.21 234,-196.21 234,-196.21 276,-196.21 276,-196.21 279,-196.21 282,-199.21 282,-202.21 282,-202.21 282,-208.21 282,-208.21 282,-211.21 279,-214.21 276,-214.21"/>
<text text-anchor="middle" x="255" y="-203.01" font-family="Helvetica,sans-Serif" font-size="9.00" fill="grey">fs</text>
</a>
</g>
</g>
<!-- fs/promises -->
<g id="node4" class="node">
<title>fs/promises</title>
<g id="a_node4"><a xlink:href="https://nodejs.org/api/fs.html" xlink:title="promises">
<path fill="#ffffcc" stroke="grey" d="M277.5,-102.21C277.5,-102.21 232.5,-102.21 232.5,-102.21 229.5,-102.21 226.5,-99.21 226.5,-96.21 226.5,-96.21 226.5,-90.21 226.5,-90.21 226.5,-87.21 229.5,-84.21 232.5,-84.21 232.5,-84.21 277.5,-84.21 277.5,-84.21 280.5,-84.21 283.5,-87.21 283.5,-90.21 283.5,-90.21 283.5,-96.21 283.5,-96.21 283.5,-99.21 280.5,-102.21 277.5,-102.21"/>
<text text-anchor="start" x="234.5" y="-91.01" font-family="Helvetica,sans-Serif" font-size="9.00" fill="grey">promises</text>
</a>
</g>
</g>
<!-- package.json -->
<g id="node5" class="node">
<title>package.json</title>
<g id="a_node5"><a xlink:href="package.json" xlink:title="package.json">
<path fill="#ffee44" stroke="black" d="M287,-68.21C287,-68.21 223,-68.21 223,-68.21 220,-68.21 217,-65.21 217,-62.21 217,-62.21 217,-56.21 217,-56.21 217,-53.21 220,-50.21 223,-50.21 223,-50.21 287,-50.21 287,-50.21 290,-50.21 293,-53.21 293,-56.21 293,-56.21 293,-62.21 293,-62.21 293,-65.21 290,-68.21 287,-68.21"/>
<text text-anchor="middle" x="255" y="-57.01" font-family="Helvetica,sans-Serif" font-size="9.00">package.json</text>
</a>
</g>
</g>
<!-- path -->
<g id="node6" class="node">
<title>path</title>
<g id="a_node6"><a xlink:href="https://nodejs.org/api/path.html" xlink:title="path">
<path fill="#ffffcc" stroke="grey" d="M276,-38.21C276,-38.21 234,-38.21 234,-38.21 231,-38.21 228,-35.21 228,-32.21 228,-32.21 228,-26.21 228,-26.21 228,-23.21 231,-20.21 234,-20.21 234,-20.21 276,-20.21 276,-20.21 279,-20.21 282,-23.21 282,-26.21 282,-26.21 282,-32.21 282,-32.21 282,-35.21 279,-38.21 276,-38.21"/>
<text text-anchor="middle" x="255" y="-27.01" font-family="Helvetica,sans-Serif" font-size="9.00" fill="grey">path</text>
</a>
</g>
</g>
<!-- src/core -->
<g id="node7" class="node">
<title>src/core</title>
<g id="a_node7"><a xlink:href="src/core" xlink:title="core">
<polygon fill="#ffffcc" stroke="black" points="204,-248.21 152,-248.21 150,-246.21 150,-230.21 202,-230.21 204,-232.21 204,-248.21"/>
<polyline fill="none" stroke="black" points="202,-246.21 150,-246.21 "/>
<polyline fill="none" stroke="black" points="202,-246.21 202,-230.21 "/>
<polyline fill="none" stroke="black" points="202,-246.21 204,-248.21 "/>
<text text-anchor="start" x="167" y="-237.01" font-family="Helvetica,sans-Serif" font-size="9.00">core</text>
</a>
</g>
</g>
<!-- src/core&#45;&gt;bun:sqlite -->
<g id="edge2" class="edge">
<title>src/core&#45;&gt;bun:sqlite</title>
<path fill="none" stroke="#000000" stroke-width="2" stroke-opacity="0.200000" d="M183.23,-230.08C189.85,-219.25 202.2,-201.28 217,-190.21 218.41,-189.16 219.89,-188.17 221.44,-187.24"/>
<polygon fill="#000000" fill-opacity="0.200000" stroke="#000000" stroke-width="2" stroke-opacity="0.200000" points="222.57,-189.01 226.84,-184.3 220.57,-185.32 222.57,-189.01"/>
</g>
<!-- src/core&#45;&gt;events -->
<g id="edge6" class="edge">
<title>src/core&#45;&gt;events</title>
<path fill="none" stroke="#000000" stroke-dasharray="5,2" stroke-opacity="0.200000" d="M180.19,-230.11C184.54,-213.93 195.71,-179.99 217,-160.21 218.67,-158.66 220.53,-157.25 222.49,-155.99"/>
<polygon fill="#000000" fill-opacity="0.200000" stroke="#000000" stroke-opacity="0.200000" points="223.68,-157.73 227.88,-152.96 221.62,-154.07 223.68,-157.73"/>
</g>
<!-- src/core&#45;&gt;fs -->
<g id="edge4" class="edge">
<title>src/core&#45;&gt;fs</title>
<path fill="none" stroke="#000000" stroke-dasharray="5,2" stroke-opacity="0.200000" d="M194.88,-230.03C201.67,-226.47 209.63,-222.48 217,-219.21 219,-218.32 221.08,-217.44 223.18,-216.57"/>
<polygon fill="#000000" fill-opacity="0.200000" stroke="#000000" stroke-opacity="0.200000" points="223.98,-218.51 228.77,-214.32 222.42,-214.61 223.98,-218.51"/>
</g>
<!-- src/core&#45;&gt;fs/promises -->
<g id="edge5" class="edge">
<title>src/core&#45;&gt;fs/promises</title>
<path fill="none" stroke="#000000" stroke-dasharray="5,2" stroke-opacity="0.200000" d="M179.82,-230.14C184.02,-210.65 195.71,-163.83 217,-130.21 222.53,-121.48 230.45,-113.2 237.54,-106.7"/>
<polygon fill="#000000" fill-opacity="0.200000" stroke="#000000" stroke-opacity="0.200000" points="239.19,-108.05 242.29,-102.5 236.4,-104.91 239.19,-108.05"/>
</g>
<!-- src/core&#45;&gt;package.json -->
<g id="edge7" class="edge">
<title>src/core&#45;&gt;package.json</title>
<path fill="none" stroke="#000000" stroke-width="2" stroke-opacity="0.200000" d="M179.01,-230.08C182.65,-198.9 195.92,-97.25 217,-73.21 217.31,-72.86 217.62,-72.52 217.95,-72.19"/>
<polygon fill="#000000" fill-opacity="0.200000" stroke="#000000" stroke-width="2" stroke-opacity="0.200000" points="219.32,-73.78 222.6,-68.34 216.64,-70.55 219.32,-73.78"/>
</g>
<!-- src/core&#45;&gt;path -->
<g id="edge3" class="edge">
<title>src/core&#45;&gt;path</title>
<path fill="none" stroke="#000000" stroke-dasharray="5,2" stroke-opacity="0.200000" d="M178.7,-229.99C181.49,-195.33 192.89,-73.33 217,-44.21 218.64,-42.23 220.58,-40.51 222.71,-39.01"/>
<polygon fill="#000000" fill-opacity="0.200000" stroke="#000000" stroke-opacity="0.200000" points="223.84,-40.78 227.93,-35.91 221.7,-37.17 223.84,-40.78"/>
</g>
<!-- src/typings -->
<g id="node8" class="node">
<title>src/typings</title>
<g id="a_node8"><a xlink:href="src/typings" xlink:title="typings">
<polygon fill="#ffffcc" stroke="black" points="282,-248.21 230,-248.21 228,-246.21 228,-230.21 280,-230.21 282,-232.21 282,-248.21"/>
<polyline fill="none" stroke="black" points="280,-246.21 228,-246.21 "/>
<polyline fill="none" stroke="black" points="280,-246.21 280,-230.21 "/>
<polyline fill="none" stroke="black" points="280,-246.21 282,-248.21 "/>
<text text-anchor="start" x="238" y="-237.01" font-family="Helvetica,sans-Serif" font-size="9.00">typings</text>
</a>
</g>
</g>
<!-- src/core&#45;&gt;src/typings -->
<g id="edge1" class="edge">
<title>src/core&#45;&gt;src/typings</title>
<path fill="none" stroke="#000000" stroke-opacity="0.200000" d="M204.15,-239.21C209.77,-239.21 215.76,-239.21 221.58,-239.21"/>
<polygon fill="none" stroke="#000000" stroke-opacity="0.200000" points="221.8,-241.31 227.8,-239.21 221.8,-237.11 221.8,-241.31"/>
</g>
<!-- stream -->
<g id="node11" class="node">
<title>stream</title>
<g id="a_node11"><a xlink:href="https://nodejs.org/api/stream.html" xlink:title="stream">
<path fill="#ffffcc" stroke="grey" d="M354,-129.21C354,-129.21 312,-129.21 312,-129.21 309,-129.21 306,-126.21 306,-123.21 306,-123.21 306,-117.21 306,-117.21 306,-114.21 309,-111.21 312,-111.21 312,-111.21 354,-111.21 354,-111.21 357,-111.21 360,-114.21 360,-117.21 360,-117.21 360,-123.21 360,-123.21 360,-126.21 357,-129.21 354,-129.21"/>
<text text-anchor="middle" x="333" y="-118.01" font-family="Helvetica,sans-Serif" font-size="9.00" fill="grey">stream</text>
</a>
</g>
</g>
<!-- src/typings&#45;&gt;stream -->
<g id="edge13" class="edge">
<title>src/typings&#45;&gt;stream</title>
<path fill="none" stroke="#000000" stroke-dasharray="5,2" stroke-opacity="0.200000" d="M280.08,-230.07C284.82,-227.44 289.42,-224.18 293,-220.21 315.29,-195.51 325.46,-156.63 329.57,-135.35"/>
<polygon fill="none" stroke="#000000" stroke-opacity="0.200000" points="331.65,-135.63 330.66,-129.35 327.52,-134.88 331.65,-135.63"/>
</g>
<!-- src/index.ts -->
<g id="node9" class="node">
<title>src/index.ts</title>
<g id="a_node9"><a xlink:href="src/index.ts" xlink:title="index.ts">
<path fill="#ddfeff" stroke="black" d="M64,-255.21C64,-255.21 22,-255.21 22,-255.21 19,-255.21 16,-252.21 16,-249.21 16,-249.21 16,-243.21 16,-243.21 16,-240.21 19,-237.21 22,-237.21 22,-237.21 64,-237.21 64,-237.21 67,-237.21 70,-240.21 70,-243.21 70,-243.21 70,-249.21 70,-249.21 70,-252.21 67,-255.21 64,-255.21"/>
<text text-anchor="start" x="24.5" y="-244.01" font-family="Helvetica,sans-Serif" font-size="9.00">index.ts</text>
</a>
</g>
</g>
<!-- src/index.ts&#45;&gt;src/core -->
<g id="edge9" class="edge">
<title>src/index.ts&#45;&gt;src/core</title>
<path fill="none" stroke="#000000" stroke-width="2" stroke-opacity="0.200000" d="M70.32,-240.06C74.54,-239.29 78.87,-238.63 83,-238.21 103.03,-236.18 125.61,-236.36 143.51,-237.09"/>
<polygon fill="#000000" fill-opacity="0.200000" stroke="#000000" stroke-width="2" stroke-opacity="0.200000" points="143.78,-239.2 149.87,-237.37 143.97,-235.01 143.78,-239.2"/>
</g>
<!-- src/routes -->
<g id="node10" class="node">
<title>src/routes</title>
<g id="a_node10"><a xlink:href="src/routes" xlink:title="routes">
<polygon fill="#ffffcc" stroke="black" points="137,-262.21 85,-262.21 83,-260.21 83,-244.21 135,-244.21 137,-246.21 137,-262.21"/>
<polyline fill="none" stroke="black" points="135,-260.21 83,-260.21 "/>
<polyline fill="none" stroke="black" points="135,-260.21 135,-244.21 "/>
<polyline fill="none" stroke="black" points="135,-260.21 137,-262.21 "/>
<text text-anchor="start" x="95.5" y="-251.01" font-family="Helvetica,sans-Serif" font-size="9.00">routes</text>
</a>
</g>
</g>
<!-- src/index.ts&#45;&gt;src/routes -->
<g id="edge8" class="edge">
<title>src/index.ts&#45;&gt;src/routes</title>
<path fill="none" stroke="#000000" stroke-width="2" stroke-opacity="0.200000" d="M70.06,-249.02C72.32,-249.26 74.61,-249.51 76.9,-249.75"/>
<polygon fill="#000000" fill-opacity="0.200000" stroke="#000000" stroke-width="2" stroke-opacity="0.200000" points="76.74,-251.85 82.93,-250.4 77.19,-247.67 76.74,-251.85"/>
</g>
<!-- src/routes&#45;&gt;src/core -->
<g id="edge10" class="edge">
<title>src/routes&#45;&gt;src/core</title>
<path fill="none" stroke="#000000" stroke-width="2" stroke-opacity="0.200000" d="M137.06,-247.6C139.32,-247.11 141.61,-246.62 143.9,-246.12"/>
<polygon fill="#000000" fill-opacity="0.200000" stroke="#000000" stroke-width="2" stroke-opacity="0.200000" points="144.51,-248.14 149.93,-244.83 143.62,-244.04 144.51,-248.14"/>
</g>
<!-- src/routes&#45;&gt;src/typings -->
<g id="edge11" class="edge">
<title>src/routes&#45;&gt;src/typings</title>
<path fill="none" stroke="#000000" stroke-width="2" stroke-opacity="0.200000" d="M137.01,-253.97C141.35,-254.07 145.8,-254.16 150,-254.21 174,-254.52 180.25,-257.7 204,-254.21 210.25,-253.29 216.81,-251.76 223.04,-250.02"/>
<polygon fill="#000000" fill-opacity="0.200000" stroke="#000000" stroke-width="2" stroke-opacity="0.200000" points="223.98,-251.93 229.14,-248.22 222.79,-247.9 223.98,-251.93"/>
</g>
<!-- src/routes&#45;&gt;stream -->
<g id="edge12" class="edge">
<title>src/routes&#45;&gt;stream</title>
<path fill="none" stroke="#000000" stroke-dasharray="5,2" stroke-opacity="0.200000" d="M111.69,-244.1C115.01,-207.28 132.91,-68.91 217,-14.21 245.32,4.21 265.3,5.12 293,-14.21 322.69,-34.93 329.84,-80.9 331.52,-104.92"/>
<polygon fill="none" stroke="#000000" stroke-opacity="0.200000" points="329.43,-105.2 331.86,-111.08 333.63,-104.97 329.43,-105.2"/>
</g>
</g>
</svg>
